<svg width="74" height="74" viewBox="0 0 74 74" fill="none" xmlns="http://www.w3.org/2000/svg">
<rect x="1" y="1" width="72" height="72" rx="6" stroke="#741349" stroke-width="2"/>
<path d="M54.4574 26.0889C55.4503 27.7511 54.693 29.8654 52.9528 30.7134L45.1913 34.4944C44.8624 34.6546 44.4918 34.7082 44.131 34.6477C43.7702 34.5872 43.4373 34.4156 43.1786 34.1569L39.6876 30.6663C39.429 30.4076 39.2575 30.0746 39.197 29.7139C39.1366 29.3531 39.1902 28.9824 39.3504 28.6536L43.1438 20.8672C43.9869 19.1364 46.0857 18.3739 47.7422 19.3551C50.6926 21.1031 52.6272 23.024 54.4574 26.0889ZM38.0574 30.7485L20.9655 47.8408C19.574 49.2323 19.574 51.4883 20.9655 52.8798C22.3566 54.2712 24.6126 54.2712 26.0041 52.8798L43.0963 35.7875C42.7571 35.631 42.4484 35.4155 42.1844 35.1512L38.6934 31.6605C38.4291 31.3965 38.2138 31.0877 38.0574 30.7485ZM22.0138 28.0521C21.4872 27.7539 21.509 26.9562 22.0441 26.6739C23.9794 25.6512 25.1217 24.4299 26.2966 22.2963C26.5803 21.7812 27.3421 21.7826 27.6255 22.2977C28.8173 24.4615 29.9852 25.6414 31.8734 26.6535C32.4088 26.9404 32.4183 27.742 31.8875 28.0366C29.9289 29.1229 28.7719 30.2971 27.6564 32.301C27.3646 32.8256 26.5789 32.8178 26.292 32.2908C25.2633 30.4019 24.0947 29.2308 22.0135 28.0524L22.0138 28.0521ZM41.7013 46.6849C41.1747 46.3867 41.1965 45.589 41.7316 45.3067C43.6669 44.284 44.8092 43.0627 45.9841 40.9291C46.2678 40.414 47.0296 40.4155 47.313 40.9305C48.5048 43.0944 49.6727 44.2742 51.5609 45.2864C52.096 45.5732 52.1058 46.3748 51.5746 46.6694C49.6164 47.7557 48.4594 48.9299 47.3439 50.9342C47.0521 51.4584 46.2664 51.4506 45.9795 50.9237C44.9508 49.0347 43.7822 47.8637 41.701 46.6852L41.7013 46.6849Z" fill="#741349"/>
</svg>
