<svg width="74" height="74" viewBox="0 0 74 74" fill="none" xmlns="http://www.w3.org/2000/svg">
<rect x="1" y="1" width="72" height="72" rx="6" stroke="#741349" stroke-width="2"/>
<path d="M42.6653 43.9602C44.499 41.7612 46.8825 40.1135 49.5 39.1123V32.75C49.5 31.9227 48.8273 31.25 48 31.25H18C17.1727 31.25 16.5 31.9227 16.5 32.75V46.25C16.5 47.0773 17.1727 47.75 18 47.75H28.5405C28.3965 45.8217 28.6455 43.8725 29.3302 42.1002C29.3757 41.9826 29.4501 41.8783 29.5466 41.797C29.6431 41.7157 29.7586 41.6601 29.8822 41.6353C34.0538 40.799 38.6213 42.1828 41.7982 45.17C42.0607 44.7484 42.3503 44.3443 42.6653 43.9602Z" fill="#741349"/>
<path d="M39.447 50.9345L39.4523 50.9412C39.558 51.0635 39.6622 51.185 39.7627 51.3042C39.9337 49.757 40.311 48.1047 41.0437 46.532C38.3077 43.7855 34.2982 42.4377 30.5865 43.0325C29.1892 47.138 30.315 52.1787 33.3428 55.1735C34.9515 56.7755 37.0942 57.5105 40.083 57.4835C39.9978 57.308 39.9387 57.121 39.9075 56.9285C39.7354 55.8154 39.6474 54.691 39.6443 53.5647C39.2993 53.1047 38.9409 52.655 38.5695 52.2162H36.1065C35.9076 52.2162 35.7168 52.1372 35.5762 51.9965C35.4355 51.8559 35.3565 51.6651 35.3565 51.4662C35.3565 51.2673 35.4355 51.0765 35.5762 50.9359C35.7168 50.7952 35.9076 50.7162 36.1065 50.7162H37.212C36.2031 49.6672 35.1105 48.702 33.945 47.8302C33.7884 47.7105 33.6852 47.5339 33.6578 47.3386C33.6304 47.1434 33.6809 46.9452 33.7986 46.7869C33.9162 46.6287 34.0914 46.5231 34.2862 46.4931C34.4811 46.4631 34.6799 46.511 34.8397 46.6265C35.3235 46.9857 35.7757 47.3555 36.2137 47.7282V47.2287C36.2137 47.0298 36.2928 46.839 36.4334 46.6984C36.5741 46.5577 36.7648 46.4787 36.9637 46.4787C37.1627 46.4787 37.3534 46.5577 37.4941 46.6984C37.6347 46.839 37.7137 47.0298 37.7137 47.2287V49.0887C38.3162 49.68 38.8949 50.2958 39.447 50.9345ZM55.437 39.5022C50.5568 39.5022 46.2248 42.0342 43.8165 44.9225C40.5667 48.8187 41.037 54.4542 41.3903 56.696C41.408 56.8074 41.4611 56.9102 41.5417 56.9892C41.6223 57.0682 41.7262 57.1192 41.838 57.1347C47.8298 58.0385 51.6952 57.2675 54.3713 54.638C58.1302 50.9465 59.5155 44.7267 57.7463 39.6935C56.9833 39.5662 56.2105 39.5023 55.437 39.5022ZM55.4108 44.4395C53.9019 45.5661 52.4884 46.8151 51.1845 48.1737H52.3927C52.5917 48.1737 52.7824 48.2527 52.9231 48.3934C53.0637 48.534 53.1427 48.7248 53.1427 48.9237C53.1427 49.1226 53.0637 49.3134 52.9231 49.454C52.7824 49.5947 52.5917 49.6737 52.3927 49.6737H49.812C48.7463 50.9032 47.7584 52.1979 46.854 53.5505L46.8345 53.5805C46.6365 53.8775 46.4565 54.1572 46.3005 54.407C46.2498 54.4935 46.1822 54.569 46.1018 54.629C46.0214 54.689 45.9298 54.7323 45.8324 54.7562C45.7349 54.7802 45.6337 54.7844 45.5346 54.7685C45.4356 54.7526 45.3407 54.717 45.2557 54.6638C45.1706 54.6106 45.0971 54.5409 45.0394 54.4588C44.9818 54.3767 44.9412 54.2838 44.9201 54.1857C44.899 54.0877 44.8978 53.9863 44.9165 53.8878C44.9353 53.7892 44.9736 53.6954 45.0293 53.612C45.1485 53.4215 45.2828 53.213 45.4245 52.9955L44.8005 49.9212C44.7611 49.7262 44.8006 49.5235 44.9104 49.3576C45.0203 49.1917 45.1914 49.0761 45.3862 49.0362C45.5812 48.9974 45.7836 49.0372 45.9493 49.1469C46.1151 49.2566 46.2308 49.4274 46.2712 49.622L46.6095 51.287C47.3412 50.2886 48.1181 49.3241 48.9375 48.3965L48.942 48.3912C49.5342 47.7217 50.1493 47.0728 50.7863 46.4457V43.8372C50.7863 43.6383 50.8653 43.4475 51.0059 43.3069C51.1466 43.1662 51.3373 43.0872 51.5363 43.0872C51.7352 43.0872 51.9259 43.1662 52.0666 43.3069C52.2072 43.4475 52.2863 43.6383 52.2863 43.8372V45.0485C53.0045 44.4132 53.7492 43.8084 54.5182 43.2357C54.6783 43.1259 54.8747 43.0824 55.0661 43.1144C55.2576 43.1464 55.4292 43.2513 55.5448 43.4072C55.6605 43.5631 55.7112 43.7577 55.6864 43.9502C55.6615 44.1427 55.5622 44.3181 55.4108 44.4395ZM43.494 23.7507C43.4692 22.8935 43.0957 22.112 42.3667 21.4227C40.1887 19.361 35.1765 18.3957 31.1955 19.2717C29.7045 19.6025 28.5563 19.4 27.786 18.668C26.9835 17.9045 26.8162 16.7742 26.8463 15.8457C25.1287 16.748 21.7492 18.9425 21.7492 22.2507C21.7492 22.79 21.852 23.2917 22.0493 23.7507H43.494ZM47.25 26.0007C47.25 25.8018 47.171 25.611 47.0303 25.4704C46.8897 25.3297 46.6989 25.2507 46.5 25.2507H19.5C19.3011 25.2507 19.1103 25.3297 18.9697 25.4704C18.829 25.611 18.75 25.8018 18.75 26.0007V26.7507H47.25V26.0007ZM18.75 28.2507H47.25V29.7507H18.75V28.2507Z" fill="#741349"/>
</svg>
