<svg width="39" height="39" viewBox="0 0 39 39" fill="none" xmlns="http://www.w3.org/2000/svg">
<rect x="1" y="1" width="37" height="37" rx="4" stroke="#741349" stroke-width="2"/>
<path d="M18.8639 19.6706C20.2916 19.6706 21.528 19.2434 22.5381 18.4004C23.5483 17.5577 24.0604 16.5265 24.0604 15.3352C24.0604 14.1442 23.5483 13.1129 22.538 12.2699C21.5276 11.4272 20.2915 11 18.8639 11C17.436 11 16.1999 11.4272 15.1898 12.27C14.1796 13.1128 13.6673 14.1441 13.6673 15.3352C13.6673 16.5265 14.1796 17.5578 15.1899 18.4006C16.2003 19.2433 17.4365 19.6706 18.8639 19.6706ZM27.9564 24.841C27.9272 24.4903 27.8683 24.1077 27.7816 23.7037C27.694 23.2966 27.5813 22.9118 27.4463 22.5601C27.3069 22.1966 27.1172 21.8377 26.8829 21.4936C26.6396 21.1366 26.3538 20.8257 26.0331 20.5698C25.6979 20.3022 25.2873 20.087 24.8126 19.93C24.3396 19.7739 23.8153 19.6948 23.2545 19.6948C23.0342 19.6948 22.8213 19.7702 22.4099 19.9936C22.1175 20.1525 21.8242 20.3102 21.5301 20.4668C21.2475 20.6171 20.8646 20.7579 20.3917 20.8853C19.9303 21.0099 19.4619 21.073 18.9995 21.073C18.5372 21.073 18.0688 21.0099 17.6069 20.8853C17.1346 20.758 16.7517 20.6172 16.4694 20.467C16.142 20.2924 15.8457 20.1331 15.5888 19.9935C15.1779 19.77 14.9647 19.6946 14.7445 19.6946C14.1835 19.6946 13.6595 19.7739 13.1865 19.9302C12.7122 20.0869 12.3015 20.3021 11.9658 20.57C11.6454 20.826 11.3595 21.1367 11.1165 21.4936C10.8823 21.8376 10.6927 22.1965 10.5531 22.5603C10.4182 22.912 10.3055 23.2966 10.2179 23.7037C10.1312 24.1071 10.0723 24.4899 10.0431 24.8414C10.0141 25.1952 9.99973 25.5497 10 25.9043C10 26.844 10.358 27.6046 11.064 28.1656C11.7613 28.7192 12.6838 29 13.8058 29H24.1942C25.3162 29 26.2384 28.7193 26.9358 28.1656C27.642 27.605 28 26.8442 28 25.9042C27.9998 25.5415 27.9852 25.1838 27.9564 24.841Z" fill="#741349"/>
</svg>
