<svg width="13" height="13" viewBox="0 0 13 13" fill="none" xmlns="http://www.w3.org/2000/svg">
<path fill-rule="evenodd" clip-rule="evenodd" d="M0.969684 0.96984C0.829233 1.11047 0.750343 1.30109 0.750343 1.49984C0.750343 1.69859 0.829233 1.88921 0.969684 2.02984L5.43868 6.49984L0.968683 10.9698C0.83213 11.1114 0.756622 11.3008 0.758423 11.4975C0.760224 11.6941 0.83919 11.8822 0.978312 12.0212C1.11743 12.1602 1.30558 12.239 1.50223 12.2406C1.69888 12.2422 1.8883 12.1665 2.02968 12.0298L7.02968 7.02984C7.17013 6.88921 7.24902 6.69859 7.24902 6.49984C7.24902 6.30109 7.17013 6.11047 7.02968 5.96984L2.02968 0.96984C1.96003 0.900145 1.87733 0.844857 1.78631 0.807136C1.69528 0.769415 1.59772 0.75 1.49918 0.75C1.40065 0.75 1.30309 0.769415 1.21206 0.807136C1.12103 0.844857 1.03833 0.900145 0.968683 0.96984H0.969684Z" fill="#741349"/>
<path fill-rule="evenodd" clip-rule="evenodd" d="M5.96968 0.96984C5.82923 1.11047 5.75034 1.30109 5.75034 1.49984C5.75034 1.69859 5.82923 1.88921 5.96968 2.02984L10.4387 6.49984L5.96868 10.9698C5.83213 11.1114 5.75662 11.3008 5.75842 11.4975C5.76022 11.6941 5.83919 11.8822 5.97831 12.0212C6.11743 12.1602 6.30558 12.239 6.50223 12.2406C6.69888 12.2422 6.8883 12.1665 7.02968 12.0298L12.0297 7.02984C12.1701 6.88921 12.249 6.69859 12.249 6.49984C12.249 6.30109 12.1701 6.11047 12.0297 5.96984L7.02968 0.96984C6.96003 0.900145 6.87733 0.844857 6.78631 0.807136C6.69528 0.769415 6.59771 0.75 6.49918 0.75C6.40065 0.75 6.30309 0.769415 6.21206 0.807136C6.12103 0.844857 6.03833 0.900145 5.96868 0.96984H5.96968Z" fill="#741349"/>
</svg>
