<svg width="117" height="40" viewBox="0 0 117 40" fill="none" xmlns="http://www.w3.org/2000/svg">
<rect width="117" height="40" rx="5" fill="white"/>
<path d="M71.6308 4H8C5.79087 4 4 5.79086 4 8V32C4 34.2091 5.79086 36 8 36H105" stroke="#741349"/>
<path d="M14.908 25V23.446H17.47C17.9273 23.446 18.282 23.306 18.534 23.026C18.7953 22.746 18.926 22.4147 18.926 22.032C18.926 21.7707 18.87 21.5327 18.758 21.318C18.646 21.1033 18.478 20.9353 18.254 20.814C18.0393 20.6833 17.778 20.618 17.47 20.618H14.908V19.078H17.26C17.652 19.078 17.9647 18.98 18.198 18.784C18.4407 18.588 18.562 18.294 18.562 17.902C18.562 17.5007 18.4407 17.202 18.198 17.006C17.9647 16.81 17.652 16.712 17.26 16.712H14.908V15.158H17.484C18.1373 15.158 18.6833 15.2793 19.122 15.522C19.57 15.7553 19.906 16.068 20.13 16.46C20.354 16.8427 20.466 17.2627 20.466 17.72C20.466 18.28 20.2933 18.7653 19.948 19.176C19.612 19.5773 19.1173 19.876 18.464 20.072L18.548 19.456C19.276 19.6613 19.836 20.002 20.228 20.478C20.6293 20.9447 20.83 21.5093 20.83 22.172C20.83 22.6947 20.6993 23.1707 20.438 23.6C20.186 24.02 19.8127 24.3607 19.318 24.622C18.8327 24.874 18.24 25 17.54 25H14.908ZM13.508 25V15.158H15.398V25H13.508ZM25.322 25.14C24.6407 25.14 24.0247 24.986 23.474 24.678C22.9327 24.3607 22.4987 23.936 22.172 23.404C21.8547 22.8627 21.696 22.2607 21.696 21.598C21.696 20.9353 21.8547 20.3427 22.172 19.82C22.4894 19.288 22.9234 18.868 23.474 18.56C24.0247 18.2427 24.636 18.084 25.308 18.084C25.9987 18.084 26.6147 18.2427 27.156 18.56C27.7067 18.868 28.1407 19.288 28.458 19.82C28.7754 20.3427 28.934 20.9353 28.934 21.598C28.934 22.2607 28.7754 22.8627 28.458 23.404C28.1407 23.936 27.7067 24.3607 27.156 24.678C26.6147 24.986 26.0034 25.14 25.322 25.14ZM25.308 23.432C25.6534 23.432 25.9567 23.3573 26.218 23.208C26.4887 23.0493 26.694 22.8347 26.834 22.564C26.9834 22.284 27.058 21.9667 27.058 21.612C27.058 21.2573 26.9834 20.9447 26.834 20.674C26.6847 20.4033 26.4794 20.1933 26.218 20.044C25.9567 19.8853 25.6534 19.806 25.308 19.806C24.972 19.806 24.6734 19.8853 24.412 20.044C24.1507 20.1933 23.9454 20.4033 23.796 20.674C23.6467 20.9447 23.572 21.2573 23.572 21.612C23.572 21.9667 23.6467 22.284 23.796 22.564C23.9454 22.8347 24.1507 23.0493 24.412 23.208C24.6734 23.3573 24.972 23.432 25.308 23.432ZM33.2927 25.14C32.6114 25.14 31.9954 24.986 31.4447 24.678C30.9034 24.3607 30.4694 23.936 30.1427 23.404C29.8254 22.8627 29.6667 22.2607 29.6667 21.598C29.6667 20.9353 29.8254 20.3427 30.1427 19.82C30.4601 19.288 30.8941 18.868 31.4447 18.56C31.9954 18.2427 32.6067 18.084 33.2787 18.084C33.9694 18.084 34.5854 18.2427 35.1267 18.56C35.6774 18.868 36.1114 19.288 36.4287 19.82C36.7461 20.3427 36.9047 20.9353 36.9047 21.598C36.9047 22.2607 36.7461 22.8627 36.4287 23.404C36.1114 23.936 35.6774 24.3607 35.1267 24.678C34.5854 24.986 33.9741 25.14 33.2927 25.14ZM33.2787 23.432C33.6241 23.432 33.9274 23.3573 34.1887 23.208C34.4594 23.0493 34.6647 22.8347 34.8047 22.564C34.9541 22.284 35.0287 21.9667 35.0287 21.612C35.0287 21.2573 34.9541 20.9447 34.8047 20.674C34.6554 20.4033 34.4501 20.1933 34.1887 20.044C33.9274 19.8853 33.6241 19.806 33.2787 19.806C32.9427 19.806 32.6441 19.8853 32.3827 20.044C32.1214 20.1933 31.9161 20.4033 31.7667 20.674C31.6174 20.9447 31.5427 21.2573 31.5427 21.612C31.5427 21.9667 31.6174 22.284 31.7667 22.564C31.9161 22.8347 32.1214 23.0493 32.3827 23.208C32.6441 23.3573 32.9427 23.432 33.2787 23.432ZM42.3974 25L39.7794 21.514L42.3834 18.238H44.4974L41.4454 21.934L41.5154 21.038L44.6374 25H42.3974ZM38.0854 25V14.878H39.9194V25H38.0854ZM48.4123 25V15.158H49.7423L50.3163 17.062V25H48.4123ZM55.2163 25L49.3783 17.44L49.7423 15.158L55.5803 22.718L55.2163 25ZM55.2163 25L54.6703 23.152V15.158H56.5883V25H55.2163ZM61.5662 25.14C60.8848 25.14 60.2688 24.986 59.7182 24.678C59.1768 24.3607 58.7428 23.936 58.4162 23.404C58.0988 22.8627 57.9402 22.2607 57.9402 21.598C57.9402 20.9353 58.0988 20.3427 58.4162 19.82C58.7335 19.288 59.1675 18.868 59.7182 18.56C60.2688 18.2427 60.8802 18.084 61.5522 18.084C62.2428 18.084 62.8588 18.2427 63.4002 18.56C63.9508 18.868 64.3848 19.288 64.7022 19.82C65.0195 20.3427 65.1782 20.9353 65.1782 21.598C65.1782 22.2607 65.0195 22.8627 64.7022 23.404C64.3848 23.936 63.9508 24.3607 63.4002 24.678C62.8588 24.986 62.2475 25.14 61.5662 25.14ZM61.5522 23.432C61.8975 23.432 62.2008 23.3573 62.4622 23.208C62.7328 23.0493 62.9382 22.8347 63.0782 22.564C63.2275 22.284 63.3022 21.9667 63.3022 21.612C63.3022 21.2573 63.2275 20.9447 63.0782 20.674C62.9288 20.4033 62.7235 20.1933 62.4622 20.044C62.2008 19.8853 61.8975 19.806 61.5522 19.806C61.2162 19.806 60.9175 19.8853 60.6562 20.044C60.3948 20.1933 60.1895 20.4033 60.0402 20.674C59.8908 20.9447 59.8162 21.2573 59.8162 21.612C59.8162 21.9667 59.8908 22.284 60.0402 22.564C60.1895 22.8347 60.3948 23.0493 60.6562 23.208C60.9175 23.3573 61.2162 23.432 61.5522 23.432ZM68.0145 25L65.4805 18.238H67.3285L68.9805 23.152L68.4205 23.166L70.1145 18.238H71.4445L73.1385 23.166L72.5785 23.152L74.2305 18.238H76.0785L73.5585 25H72.2285L70.5205 20.324H71.0385L69.3305 25H68.0145Z" fill="#741349"/>
<path d="M90.5014 25.2503C90.3525 25.2511 90.2066 25.2076 90.0825 25.1253C89.9583 25.0429 89.8615 24.9255 89.8044 24.7879C89.7473 24.6503 89.7324 24.4988 89.7617 24.3528C89.791 24.2067 89.8632 24.0727 89.9689 23.9678L93.9439 20.0003L89.9689 16.0328C89.8461 15.8893 89.7819 15.7047 89.7891 15.516C89.7964 15.3272 89.8747 15.1482 90.0083 15.0146C90.1418 14.881 90.3209 14.8028 90.5096 14.7955C90.6984 14.7882 90.883 14.8524 91.0264 14.9753L95.5264 19.4753C95.6661 19.6158 95.7445 19.8059 95.7445 20.004C95.7445 20.2022 95.6661 20.3922 95.5264 20.5328L91.0264 25.0328C90.8867 25.1713 90.6982 25.2494 90.5014 25.2503Z" fill="#741349"/>
<path d="M86.0014 25.2511C85.8525 25.252 85.7066 25.2085 85.5825 25.1261C85.4583 25.0438 85.3615 24.9263 85.3044 24.7887C85.2473 24.6511 85.2324 24.4997 85.2617 24.3536C85.291 24.2075 85.3632 24.0735 85.4689 23.9686L89.4439 20.0011L85.4689 16.0336C85.3277 15.8924 85.2484 15.7008 85.2484 15.5011C85.2484 15.3014 85.3277 15.1098 85.4689 14.9686C85.6102 14.8274 85.8017 14.748 86.0014 14.748C86.2012 14.748 86.3927 14.8274 86.5339 14.9686L91.0339 19.4686C91.1736 19.6091 91.252 19.7992 91.252 19.9974C91.252 20.1955 91.1736 20.3856 91.0339 20.5261L86.5339 25.0261C86.4645 25.097 86.3816 25.1534 86.2902 25.192C86.1988 25.2306 86.1007 25.2507 86.0014 25.2511Z" fill="#741349"/>
</svg>
