<svg width="49" height="49" viewBox="0 0 49 49" fill="none" xmlns="http://www.w3.org/2000/svg">
<path d="M7 1C3.68629 1 1 3.68629 1 7V42C1 45.3137 3.68629 48 7 48H42C45.3137 48 48 45.3137 48 42V7C48 3.68629 45.3137 1 42 1H7Z" stroke="#741349" stroke-width="2"/>
<g clip-path="url(#clip0_240_1828)">
<path d="M12.5899 19.6403C12.1968 19.0167 11.9727 18.2927 11.9727 17.5523V17.4666H12.9754V17.5523C12.9754 17.9874 13.0822 18.4151 13.2677 18.8056C14.8634 17.0635 17.1489 15.9626 19.6917 15.9626H20.1043C19.7028 15.188 19.4931 14.3284 19.4926 13.4559H20.4953C20.4953 14.3408 20.755 15.197 21.2453 15.933L21.2648 15.9626H22.4901C22.4675 14.8234 22.3631 13.6873 22.1778 12.5631L22.0063 11.5333L22.9954 11.3684L23.1669 12.3981C23.3629 13.5747 23.4692 14.7739 23.4932 15.9696C24.9053 15.9963 26.2896 16.3673 27.5258 17.0503C28.762 17.7333 29.8128 18.7077 30.587 19.889C31.137 19.7491 31.6228 19.4227 31.9416 18.945L32.0158 18.8337L31.8278 16.0132C31.7518 14.8602 31.2723 13.7707 30.4734 12.9358C29.6746 12.1009 28.6073 11.5739 27.4587 11.4471C27.3791 11.4382 27.3028 11.4104 27.2362 11.3659L26.7318 11.03C25.1767 9.99326 23.3669 9.44531 21.498 9.44531C19.629 9.44531 17.8192 9.99326 16.2646 11.0305L15.7603 11.3664C15.6936 11.4108 15.6173 11.4387 15.5377 11.4476C14.389 11.5742 13.3216 12.1012 12.5226 12.9361C11.7236 13.771 11.2441 14.8606 11.1681 16.0137L10.9691 19.0041C10.9646 19.0706 10.947 19.1355 10.9174 19.1951C10.623 19.7849 10.4694 20.435 10.4688 21.0942V22.5751C10.4688 23.5717 10.6578 24.5398 11.0117 25.4422C10.987 25.1902 10.9731 24.9373 10.9701 24.6842C10.9701 22.8042 11.5742 21.0661 12.5899 19.6403Z" fill="#741349"/>
<path d="M28.162 28.8504L27.7645 28.4528L25.8629 30.3544L25.154 29.6455L27.0556 27.744L26.658 27.3464C26.6114 27.2999 26.5745 27.2446 26.5492 27.1838C26.524 27.123 26.511 27.0578 26.511 26.992C26.511 26.9261 26.524 26.8609 26.5492 26.8001C26.5745 26.7393 26.6114 26.684 26.658 26.6375L28.0698 25.2258C27.9866 24.8492 27.9995 24.4577 28.1072 24.0874C28.215 23.7171 28.4142 23.3798 28.6864 23.1067C27.9566 21.847 26.9081 20.8016 25.6462 20.0756C24.3844 19.3496 22.9537 18.9685 21.4979 18.9707C17.8211 18.9707 14.6242 21.3315 13.5428 24.8458L13.4932 25.0072L14.4682 29.3963C15.0829 32.1731 16.7176 34.618 19.0489 36.247C20.4917 37.2571 22.5035 37.2571 23.9463 36.247C26.2776 34.618 27.9124 32.1731 28.527 29.3963L28.6202 28.9772C28.5856 28.9842 28.5515 28.9973 28.5164 28.9973C28.4506 28.9973 28.3854 28.9844 28.3246 28.9592C28.2637 28.934 28.2085 28.897 28.162 28.8504ZM20.0004 30.421C20.0131 30.3426 20.0443 30.2684 20.0914 30.2044C20.1385 30.1404 20.2001 30.0886 20.2711 30.0531C20.4896 29.9446 20.6733 29.7771 20.8015 29.5696C20.9297 29.3621 20.9973 29.1229 20.9965 28.879V26.4906H21.9992V28.8795C21.9992 29.5332 21.73 30.1378 21.2703 30.5679L21.8523 31.15L21.1434 31.8588L20.1408 30.8562C20.0845 30.8 20.0424 30.7312 20.018 30.6556C19.9936 30.5799 19.9876 30.4995 20.0004 30.421ZM16.089 25.3165L16.0364 25.2107L16.9333 24.7621L16.9859 24.8683C17.1769 25.2503 17.5609 25.488 17.9886 25.488C18.4162 25.488 18.8002 25.2503 18.9912 24.8683L19.0439 24.7626L19.9407 25.2112L19.8881 25.317C19.5261 26.0409 18.7982 26.4906 17.9886 26.4906C17.1789 26.4906 16.451 26.0409 16.089 25.3165ZM24.5319 33.0916C23.6305 33.6927 22.5817 34.0105 21.4979 34.0105C20.414 34.0105 19.3652 33.6927 18.4638 33.0916L18.2117 32.9237L18.7676 32.0895L19.0198 32.2574C20.4922 33.239 22.503 33.239 23.9754 32.2574L24.2276 32.0895L24.7836 32.9237L24.5319 33.0916ZM23.1076 25.3165L23.055 25.2107L23.9519 24.7621L24.0045 24.8683C24.1955 25.2503 24.5795 25.488 25.0072 25.488C25.4348 25.488 25.8188 25.2503 26.0098 24.8683L26.0624 24.7626L26.9593 25.2112L26.9067 25.317C26.5447 26.0409 25.8168 26.4906 25.0072 26.4906C24.1975 26.4906 23.4696 26.0409 23.1076 25.3165Z" fill="#741349"/>
<path d="M28.694 26.3739C28.6339 26.3137 28.5867 26.2446 28.5341 26.1794L27.7215 26.9915L28.5166 27.7866L29.3287 26.9745C29.2635 26.9218 29.1944 26.8747 29.1342 26.8146L28.694 26.3739ZM18.49 37.0777V39.0234H24.5059V37.0777C23.6186 37.6944 22.5793 38.0207 21.498 38.0207C20.4166 38.0207 19.3773 37.6944 18.49 37.0777ZM32.9854 20.2236L33.8843 21.1225L33.1754 21.8314L32.2765 20.9325L31.4814 21.7276L31.879 22.1251L31.1701 22.834L30.7725 22.4365L29.9774 23.2316L30.8763 24.1305L30.1674 24.8393L29.2816 23.9535C29.0916 24.2053 28.9993 24.5174 29.0216 24.832C29.0439 25.1466 29.1793 25.4425 29.4029 25.665L29.8436 26.1057C30.3399 26.602 31.2057 26.602 31.702 26.1057L35.8289 21.9783L33.5298 19.6792L32.9854 20.2236ZM36.7418 16.967L37.5364 16.1719L39.3337 17.9691L38.5391 18.7642L36.7418 16.967ZM34.9872 19.7243L36.5338 18.1772L37.3289 18.9723L35.7823 20.5189L34.9872 19.7243ZM12.4961 24.8388L12.5849 24.5506C13.7966 20.6131 17.3781 17.9676 21.498 17.9676C23.0845 17.9647 24.6453 18.3678 26.0319 19.1387C27.4185 19.9096 28.5847 21.0227 29.4194 22.3718L30.3193 21.4719C29.7074 20.1255 28.7201 18.9842 27.4759 18.1848C26.2316 17.3854 24.7832 16.9619 23.3042 16.965H19.6922C15.4354 16.965 11.9727 20.4276 11.9727 24.6839C11.9727 26.3147 12.4831 27.8744 13.3945 29.1813L12.4861 25.0945C12.4671 25.0099 12.4705 24.9217 12.4961 24.8388ZM29.9052 27.8157L29.5984 29.1959C29.9738 28.66 30.2807 28.0793 30.5118 27.4673C30.4351 27.4588 30.3579 27.4543 30.2827 27.4377L29.9052 27.8157Z" fill="#741349"/>
</g>
<defs>
<clipPath id="clip0_240_1828">
<path d="M10 14C10 11.2386 12.2386 9 15 9H35C37.7614 9 40 11.2386 40 14V34C40 36.7614 37.7614 39 35 39H15C12.2386 39 10 36.7614 10 34V14Z" fill="white"/>
</clipPath>
</defs>
</svg>
