<svg width="39" height="39" viewBox="0 0 39 39" fill="none" xmlns="http://www.w3.org/2000/svg">
<path d="M7 1C3.68629 1 1 3.68629 1 7V32C1 35.3137 3.68629 38 7 38H32C35.3137 38 38 35.3137 38 32V7C38 3.68629 35.3137 1 32 1H7Z" stroke="#741349" stroke-width="2"/>
<g clip-path="url(#clip0_244_2873)">
<path d="M28.75 14.3314V16.8751H11.25V14.3314C11.2564 13.8401 11.4574 13.3714 11.8089 13.0281C12.1604 12.6848 12.6337 12.4949 13.125 12.5001H14.375V13.7501C14.375 14.2474 14.5725 14.7243 14.9242 15.0759C15.2758 15.4276 15.7527 15.6251 16.25 15.6251C16.7473 15.6251 17.2242 15.4276 17.5758 15.0759C17.9275 14.7243 18.125 14.2474 18.125 13.7501V12.5001H21.875V13.7501C21.875 14.2474 22.0725 14.7243 22.4242 15.0759C22.7758 15.4276 23.2527 15.6251 23.75 15.6251C24.2473 15.6251 24.7242 15.4276 25.0758 15.0759C25.4275 14.7243 25.625 14.2474 25.625 13.7501V12.5001H26.875C27.3663 12.4949 27.8396 12.6848 28.1911 13.0281C28.5426 13.3714 28.7436 13.8401 28.75 14.3314ZM11.25 18.1251V28.1689C11.2564 28.6601 11.4574 29.1288 11.8089 29.4721C12.1604 29.8154 12.6337 30.0053 13.125 30.0001H26.875C27.3663 30.0053 27.8396 29.8154 28.1911 29.4721C28.5426 29.1288 28.7436 28.6601 28.75 28.1689V18.1251H11.25ZM16.875 26.8751C16.8745 27.0407 16.8085 27.1994 16.6914 27.3165C16.5743 27.4336 16.4156 27.4996 16.25 27.5001H15C14.8344 27.4996 14.6757 27.4336 14.5586 27.3165C14.4415 27.1994 14.3755 27.0407 14.375 26.8751V25.6251C14.3755 25.4595 14.4415 25.3008 14.5586 25.1837C14.6757 25.0666 14.8344 25.0006 15 25.0001H16.25C16.4156 25.0006 16.5743 25.0666 16.6914 25.1837C16.8085 25.3008 16.8745 25.4595 16.875 25.6251V26.8751ZM16.875 22.5001C16.8745 22.6657 16.8085 22.8244 16.6914 22.9415C16.5743 23.0586 16.4156 23.1246 16.25 23.1251H15C14.8344 23.1246 14.6757 23.0586 14.5586 22.9415C14.4415 22.8244 14.3755 22.6657 14.375 22.5001V21.2501C14.3755 21.0845 14.4415 20.9258 14.5586 20.8087C14.6757 20.6916 14.8344 20.6256 15 20.6251H16.25C16.4156 20.6256 16.5743 20.6916 16.6914 20.8087C16.8085 20.9258 16.8745 21.0845 16.875 21.2501V22.5001ZM21.25 26.8751C21.2495 27.0407 21.1835 27.1994 21.0664 27.3165C20.9493 27.4336 20.7906 27.4996 20.625 27.5001H19.375C19.2094 27.4996 19.0507 27.4336 18.9336 27.3165C18.8165 27.1994 18.7505 27.0407 18.75 26.8751V25.6251C18.7505 25.4595 18.8165 25.3008 18.9336 25.1837C19.0507 25.0666 19.2094 25.0006 19.375 25.0001H20.625C20.7906 25.0006 20.9493 25.0666 21.0664 25.1837C21.1835 25.3008 21.2495 25.4595 21.25 25.6251V26.8751ZM21.25 22.5001C21.2495 22.6657 21.1835 22.8244 21.0664 22.9415C20.9493 23.0586 20.7906 23.1246 20.625 23.1251H19.375C19.2094 23.1246 19.0507 23.0586 18.9336 22.9415C18.8165 22.8244 18.7505 22.6657 18.75 22.5001V21.2501C18.7505 21.0845 18.8165 20.9258 18.9336 20.8087C19.0507 20.6916 19.2094 20.6256 19.375 20.6251H20.625C20.7906 20.6256 20.9493 20.6916 21.0664 20.8087C21.1835 20.9258 21.2495 21.0845 21.25 21.2501V22.5001ZM25.625 22.5001C25.6245 22.6657 25.5585 22.8244 25.4414 22.9415C25.3243 23.0586 25.1656 23.1246 25 23.1251H23.75C23.5844 23.1246 23.4257 23.0586 23.3086 22.9415C23.1915 22.8244 23.1255 22.6657 23.125 22.5001V21.2501C23.1255 21.0845 23.1915 20.9258 23.3086 20.8087C23.4257 20.6916 23.5844 20.6256 23.75 20.6251H25C25.1656 20.6256 25.3243 20.6916 25.4414 20.8087C25.5585 20.9258 25.6245 21.0845 25.625 21.2501V22.5001Z" fill="#741349"/>
<path d="M16.875 12.5V13.75C16.875 13.9158 16.8092 14.0747 16.6919 14.1919C16.5747 14.3092 16.4158 14.375 16.25 14.375C16.0842 14.375 15.9253 14.3092 15.8081 14.1919C15.6908 14.0747 15.625 13.9158 15.625 13.75V12.5C15.625 12.3342 15.6908 12.1753 15.8081 12.0581C15.9253 11.9408 16.0842 11.875 16.25 11.875C16.4158 11.875 16.5747 11.9408 16.6919 12.0581C16.8092 12.1753 16.875 12.3342 16.875 12.5ZM24.375 12.5V13.75C24.375 13.9158 24.3092 14.0747 24.1919 14.1919C24.0747 14.3092 23.9158 14.375 23.75 14.375C23.5842 14.375 23.4253 14.3092 23.3081 14.1919C23.1908 14.0747 23.125 13.9158 23.125 13.75V12.5C23.125 12.3342 23.1908 12.1753 23.3081 12.0581C23.4253 11.9408 23.5842 11.875 23.75 11.875C23.9158 11.875 24.0747 11.9408 24.1919 12.0581C24.3092 12.1753 24.375 12.3342 24.375 12.5Z" fill="#741349"/>
</g>
<defs>
<clipPath id="clip0_244_2873">
<rect width="20" height="20" fill="white" transform="translate(10 10)"/>
</clipPath>
</defs>
</svg>
