<svg width="40" height="40" viewBox="0 0 40 40" fill="none" xmlns="http://www.w3.org/2000/svg">
<rect x="0.5" y="0.5" width="39" height="39" rx="5.5" stroke="#741349"/>
<g clip-path="url(#clip0_179_3116)">
<path d="M27.5066 17.993C27.5306 15.1733 25.129 12.5883 22.1531 12.2309C22.0939 12.2238 22.0294 12.2132 21.9611 12.2018C21.8138 12.1774 21.6615 12.1523 21.5077 12.1523C20.8978 12.1523 20.7347 12.5808 20.6918 12.8363C20.6501 13.0848 20.6899 13.2934 20.81 13.4567C21.0119 13.7313 21.3674 13.7801 21.6528 13.8192C21.7365 13.8307 21.8154 13.8415 21.8815 13.8563C24.5553 14.4538 25.4556 15.3931 25.8956 18.0441C25.9064 18.1089 25.9112 18.1887 25.9164 18.2734C25.9355 18.5903 25.9755 19.2496 26.6844 19.2496H26.6844C26.7434 19.2496 26.8069 19.2445 26.8729 19.2345C27.5329 19.1341 27.5123 18.5315 27.5023 18.2419C27.4995 18.1604 27.4969 18.0832 27.5037 18.0319C27.5056 18.019 27.5065 18.006 27.5066 17.993Z" fill="#741349"/>
<path d="M21.3346 11.1951C21.4138 11.2009 21.4887 11.2063 21.5512 11.2159C25.9418 11.8911 27.961 13.9713 28.5205 18.3963C28.53 18.4715 28.5315 18.5633 28.5331 18.6604C28.5387 19.0061 28.5502 19.7253 29.3225 19.7402L29.3465 19.7405C29.5887 19.7405 29.7814 19.6674 29.9192 19.5232C30.1597 19.2717 30.1429 18.8981 30.1294 18.5979C30.1261 18.5242 30.1229 18.4548 30.1237 18.3941C30.1795 13.8685 26.2621 9.7647 21.7406 9.61209C21.7218 9.61147 21.7039 9.61247 21.6859 9.61501C21.6681 9.61725 21.6502 9.61823 21.6323 9.61793C21.5872 9.61793 21.5318 9.61402 21.473 9.61004C21.4018 9.6052 21.3212 9.59961 21.2395 9.59961C20.5194 9.59961 20.3825 10.1114 20.365 10.4165C20.3246 11.1216 21.0067 11.1712 21.3346 11.1951ZM28.3087 24.1153C28.2143 24.0439 28.1209 23.9712 28.0284 23.8974C27.549 23.5117 27.039 23.1561 26.5458 22.8122C26.4435 22.7409 26.3412 22.6695 26.2391 22.5979C25.6073 22.1541 25.0393 21.9385 24.5026 21.9385C23.7798 21.9385 23.1497 22.3379 22.6295 23.1254C22.3991 23.4745 22.1195 23.6443 21.775 23.6443C21.5713 23.6443 21.3398 23.5861 21.0871 23.4714C19.0477 22.5466 17.5915 21.1287 16.7588 19.2571C16.3562 18.3525 16.4867 17.7612 17.1952 17.28C17.5975 17.0069 18.3463 16.4986 18.2933 15.5252C18.2332 14.4198 15.7942 11.0938 14.7666 10.716C14.3315 10.556 13.8743 10.5545 13.4054 10.7123C12.224 11.1094 11.3763 11.8069 10.9535 12.7291C10.545 13.6202 10.5635 14.6666 11.0069 15.755C12.2887 18.902 14.091 21.6457 16.3637 23.9099C18.5883 26.1263 21.3225 27.9418 24.4903 29.3058C24.7759 29.4287 25.0754 29.4957 25.2941 29.5446C25.3686 29.5613 25.433 29.5756 25.4798 29.5885C25.5056 29.5955 25.5322 29.5993 25.5589 29.5995L25.5839 29.5997H25.584C27.0739 29.5997 28.863 28.2382 29.4124 26.686C29.8938 25.3269 29.0149 24.6551 28.3087 24.1153ZM21.9936 14.7899C21.7385 14.7964 21.2076 14.8095 21.0213 15.3502C20.9342 15.6029 20.9446 15.8223 21.0524 16.0023C21.2105 16.2664 21.5135 16.3473 21.7891 16.3917C22.7885 16.5521 23.3018 17.1048 23.4045 18.1308C23.4522 18.6093 23.7744 18.9434 24.188 18.9434C24.2186 18.9434 24.2499 18.9416 24.281 18.9378C24.7785 18.8786 25.0197 18.5131 24.9979 17.8515C25.0059 17.161 24.6445 16.3771 24.0299 15.7527C23.4132 15.1263 22.6698 14.7736 21.9936 14.7899Z" fill="#741349"/>
</g>
<defs>
<clipPath id="clip0_179_3116">
<rect width="20" height="20" fill="white" transform="translate(10.3984 9.59961)"/>
</clipPath>
</defs>
</svg>
