<svg width="18" height="14" viewBox="0 0 18 14" fill="none" xmlns="http://www.w3.org/2000/svg">
<path d="M7.09307 12.9335C7.01591 13.0113 6.92413 13.073 6.82301 13.1151C6.72189 13.1572 6.61344 13.1789 6.5039 13.1789C6.39436 13.1789 6.28591 13.1572 6.18479 13.1151C6.08367 13.073 5.99189 13.0113 5.91473 12.9335L1.20973 8.22851C0.975394 7.9941 0.84375 7.67621 0.84375 7.34476C0.84375 7.0133 0.975394 6.69542 1.20973 6.46101L1.7989 5.87184C2.03331 5.6375 2.3512 5.50586 2.68265 5.50586C3.01411 5.50586 3.33199 5.6375 3.5664 5.87184L6.5039 8.80934L14.4414 0.871842C14.6758 0.637503 14.9937 0.505859 15.3252 0.505859C15.6566 0.505859 15.9745 0.637503 16.2089 0.871842L16.7981 1.46101C17.0324 1.69542 17.1641 2.0133 17.1641 2.34476C17.1641 2.67621 17.0324 2.9941 16.7981 3.22851L7.09307 12.9335Z" fill="#741349"/>
<path d="M2.68307 5.50586C2.36307 5.50586 2.04307 5.62753 1.7989 5.87253L1.20973 6.4617C0.975394 6.69611 0.84375 7.01399 0.84375 7.34545C0.84375 7.6769 0.975394 7.99479 1.20973 8.2292L5.91473 12.9342C5.99213 13.0117 6.08403 13.0731 6.1852 13.1151C6.28636 13.157 6.3948 13.1786 6.50432 13.1786C6.61383 13.1786 6.72227 13.157 6.82343 13.1151C6.9246 13.0731 7.0165 13.0117 7.0939 12.9342L9.00473 11.0234V6.31003L6.50473 8.81003L3.56723 5.87253C3.45139 5.75603 3.31361 5.66364 3.16185 5.6007C3.01009 5.53777 2.84736 5.50553 2.68307 5.50586Z" fill="#741349"/>
</svg>
