<svg width="49" height="49" viewBox="0 0 49 49" fill="none" xmlns="http://www.w3.org/2000/svg">
<path d="M7 1C3.68629 1 1 3.68629 1 7V42C1 45.3137 3.68629 48 7 48H42C45.3137 48 48 45.3137 48 42V7C48 3.68629 45.3137 1 42 1H7Z" stroke="#741349" stroke-width="2"/>
<path d="M31.6 9.59961H18.4C17.56 9.59961 16.84 10.3196 16.9 11.2196L17.02 12.7796H32.92L33.04 11.2196C33.16 10.3196 32.44 9.59961 31.6 9.59961ZM19.24 32.3996H30.82L32.86 13.3796H17.14L19.24 32.3996ZM25 18.8996C27.04 18.8996 28.66 21.2396 28.66 24.1796C28.66 27.1796 27.04 29.4596 25 29.4596C22.96 29.4596 21.34 27.1196 21.34 24.1796C21.34 21.2396 22.96 18.8996 25 18.8996ZM19.3 37.3796C19.3 37.9196 19.72 38.3996 20.32 38.3996H29.74C30.28 38.3996 30.76 37.9796 30.76 37.3796V32.9996H19.3V37.3796Z" fill="#741349"/>
<path d="M25.0004 28.9186C26.6804 28.9186 28.0604 26.8186 28.0604 24.2386C28.0604 21.6586 26.6804 19.5586 25.0004 19.5586C23.3204 19.5586 21.9404 21.6586 21.9404 24.2386C21.9404 26.8186 23.3204 28.9186 25.0004 28.9186Z" fill="#741349"/>
</svg>
