<svg width="58" height="46" viewBox="0 0 58 46" fill="none" xmlns="http://www.w3.org/2000/svg">
<path d="M46.6962 23.4993C53.051 23.4993 57.3334 27.9997 57.3334 34.6678C57.3334 40.6683 52.4114 45.6673 45.745 45.6673C38.4431 45.6673 33.0476 39.6668 33.0476 30.5013C33.0476 9.66853 47.9672 1.33544 57.3334 0.333984V9.49956C50.9826 10.6659 43.8426 17.165 43.5229 24.3359C43.8426 24.1711 45.1095 23.4993 46.6962 23.4993ZM14.3193 23.4993C20.666 23.4993 24.9524 27.9997 24.9524 34.6678C24.9524 40.6683 20.0305 45.6673 13.3641 45.6673C6.06216 45.6673 0.666687 39.6668 0.666687 30.5013C0.666687 9.66853 15.5862 1.33544 24.9524 0.333984V9.49956C18.6017 10.6659 11.4617 17.165 11.1419 24.3359C11.4617 24.1711 12.7286 23.4993 14.3193 23.4993Z" fill="#161D27"/>
</svg>
