<svg width="26" height="26" viewBox="0 0 26 26" fill="none" xmlns="http://www.w3.org/2000/svg">
<rect x="1.4231" y="1" width="24" height="24" rx="5.5" stroke="#741349"/>
<path d="M12.4093 14.1011H10.995C10.7664 14.1011 10.695 14.0153 10.695 13.8011V12.0725C10.695 11.8439 10.7807 11.7725 10.995 11.7725H12.4093V10.5153C12.4093 9.94392 12.5093 9.40106 12.795 8.90106C13.095 8.38677 13.5236 8.04392 14.0664 7.84392C14.4236 7.71535 14.7807 7.6582 15.1664 7.6582H16.5664C16.7664 7.6582 16.8522 7.74392 16.8522 7.94392V9.57249C16.8522 9.77249 16.7664 9.8582 16.5664 9.8582C16.1807 9.8582 15.795 9.8582 15.4093 9.87249C15.0236 9.87249 14.8236 10.0582 14.8236 10.4582C14.8093 10.8868 14.8236 11.3011 14.8236 11.7439H16.4807C16.7093 11.7439 16.795 11.8296 16.795 12.0582V13.7868C16.795 14.0153 16.7236 14.0868 16.4807 14.0868H14.8236V18.7439C14.8236 18.9868 14.7522 19.0725 14.495 19.0725H12.7093C12.495 19.0725 12.4093 18.9868 12.4093 18.7725V14.1011Z" fill="#741349"/>
</svg>
