<svg width="49" height="49" viewBox="0 0 49 49" fill="none" xmlns="http://www.w3.org/2000/svg">
<path d="M7 1C3.68629 1 1 3.68629 1 7V42C1 45.3137 3.68629 48 7 48H42C45.3137 48 48 45.3137 48 42V7C48 3.68629 45.3137 1 42 1H7Z" stroke="#741349" stroke-width="2"/>
<g clip-path="url(#clip0_240_1850)">
<path d="M16.4894 28.8932L15.2403 30.1423L13.9913 28.8933L12.7423 30.1423L15.2404 32.6404L12.7424 35.1385L11.4932 33.8894L10.2442 35.1384L13.9913 38.8856L15.2403 37.6365L13.9913 36.3874L16.4894 33.8893L18.9874 36.3874L20.2365 35.1384L18.9874 33.8893L20.2365 32.6403C19.167 31.5707 17.2691 29.6729 16.4894 28.8932ZM10 15.7604C10.216 18.9749 12.8997 21.5242 16.1679 21.5242H26.3565L23.669 24.2118L22.4199 22.9628L17.7385 27.6443L21.4856 31.3914L26.167 26.7099L24.918 25.4609L28.8546 21.5243H33.8321C37.1004 21.5243 39.784 18.9749 40.0001 15.7604L10 15.7604ZM33.1159 10.1344C32.2117 9.51276 31.1688 9.16189 30.0997 9.11962C29.0962 9.07999 28.0887 9.30974 27.187 9.78408C26.2911 10.2553 25.5353 10.949 24.9999 11.791C24.4646 10.949 23.7088 10.2553 22.8129 9.78408C21.9112 9.30974 20.9038 9.07987 19.9003 9.11968C18.8312 9.16195 17.7882 9.51282 16.8841 10.1345L11.2702 13.994H38.7298L33.1159 10.1344Z" fill="#741349"/>
</g>
<defs>
<clipPath id="clip0_240_1850">
<rect width="30" height="30" fill="white" transform="translate(10 9)"/>
</clipPath>
</defs>
</svg>
