<svg width="59" height="59" viewBox="0 0 59 59" fill="none" xmlns="http://www.w3.org/2000/svg">
<rect x="1" y="1" width="57" height="57" rx="6" stroke="#741349" stroke-width="2"/>
<path d="M36.5717 37.1768H14.9427C14.3767 37.1768 13.9179 37.6356 13.9179 38.2016V43.9253C13.9179 45.6207 15.2971 46.9999 16.9924 46.9999H34.522C36.2173 46.9999 37.5965 45.6207 37.5965 43.9253V38.2016C37.5965 37.6356 37.1378 37.1768 36.5717 37.1768ZM27.9675 43.0449H23.9949C23.4289 43.0449 22.9701 42.5861 22.9701 42.0201C22.9701 41.4541 23.4289 40.9952 23.9949 40.9952H27.9675C28.5335 40.9952 28.9924 41.4541 28.9924 42.0201C28.9924 42.5861 28.5335 43.0449 27.9675 43.0449ZM35.5468 33.2293C35.5468 32.6633 35.088 32.2044 34.522 32.2044H16.9924C16.4264 32.2044 15.9676 32.6633 15.9676 33.2293V35.127H35.5468V33.2293ZM33.2351 30.1547C33.0206 28.7368 32.176 27.4279 30.7592 26.3348C29.5029 25.3654 27.76 24.5501 25.8516 24.0392C25.1432 23.8495 24.4707 24.4436 24.5714 25.17L24.6091 25.4413C24.681 25.9595 24.5291 26.4624 24.1817 26.855C23.8415 27.2396 23.3441 27.448 22.8307 27.4501L22.1325 27.4529C20.4242 27.4598 18.9758 28.5988 18.4988 30.1547H33.2351V30.1547ZM44.181 25.2958L31.7858 12.9006C31.2051 12.3198 30.433 12 29.6118 12C28.7905 12 28.0184 12.3198 27.4377 12.9006L25.0788 15.2595C24.8866 15.4517 24.7787 15.7123 24.7787 15.9841C24.7787 16.2559 24.8866 16.5166 25.0788 16.7088L40.3728 32.0028C40.5651 32.1949 40.8257 32.3029 41.0975 32.3029C41.3693 32.3029 41.63 32.1949 41.8222 32.0028L44.1811 29.6439C44.7618 29.0632 45.0816 28.2911 45.0816 27.4699C45.0816 26.6486 44.7618 25.8765 44.181 25.2958Z" fill="#741349"/>
</svg>
