<svg width="175" height="55" viewBox="0 0 175 55" fill="none" xmlns="http://www.w3.org/2000/svg">
<rect width="175" height="55" rx="10" fill="#741349"/>
<path d="M93.8738 5H12C8.13401 5 5 8.13401 5 12V43C5 46.866 8.13401 50 12 50H148" stroke="white" stroke-width="1.3"/>
<path d="M32.096 33V31.002H35.39C35.978 31.002 36.434 30.822 36.758 30.462C37.094 30.102 37.262 29.676 37.262 29.184C37.262 28.848 37.19 28.542 37.046 28.266C36.902 27.99 36.686 27.774 36.398 27.618C36.122 27.45 35.786 27.366 35.39 27.366H32.096V25.386H35.12C35.624 25.386 36.026 25.26 36.326 25.008C36.638 24.756 36.794 24.378 36.794 23.874C36.794 23.358 36.638 22.974 36.326 22.722C36.026 22.47 35.624 22.344 35.12 22.344H32.096V20.346H35.408C36.248 20.346 36.95 20.502 37.514 20.814C38.09 21.114 38.522 21.516 38.81 22.02C39.098 22.512 39.242 23.052 39.242 23.64C39.242 24.36 39.02 24.984 38.576 25.512C38.144 26.028 37.508 26.412 36.668 26.664L36.776 25.872C37.712 26.136 38.432 26.574 38.936 27.186C39.452 27.786 39.71 28.512 39.71 29.364C39.71 30.036 39.542 30.648 39.206 31.2C38.882 31.74 38.402 32.178 37.766 32.514C37.142 32.838 36.38 33 35.48 33H32.096ZM30.296 33V20.346H32.726V33H30.296ZM45.4855 33.18C44.6095 33.18 43.8175 32.982 43.1095 32.586C42.4135 32.178 41.8555 31.632 41.4355 30.948C41.0275 30.252 40.8235 29.478 40.8235 28.626C40.8235 27.774 41.0275 27.012 41.4355 26.34C41.8435 25.656 42.4015 25.116 43.1095 24.72C43.8175 24.312 44.6035 24.108 45.4675 24.108C46.3555 24.108 47.1475 24.312 47.8435 24.72C48.5515 25.116 49.1095 25.656 49.5175 26.34C49.9255 27.012 50.1295 27.774 50.1295 28.626C50.1295 29.478 49.9255 30.252 49.5175 30.948C49.1095 31.632 48.5515 32.178 47.8435 32.586C47.1475 32.982 46.3615 33.18 45.4855 33.18ZM45.4675 30.984C45.9115 30.984 46.3015 30.888 46.6375 30.696C46.9855 30.492 47.2495 30.216 47.4295 29.868C47.6215 29.508 47.7175 29.1 47.7175 28.644C47.7175 28.188 47.6215 27.786 47.4295 27.438C47.2375 27.09 46.9735 26.82 46.6375 26.628C46.3015 26.424 45.9115 26.322 45.4675 26.322C45.0355 26.322 44.6515 26.424 44.3155 26.628C43.9795 26.82 43.7155 27.09 43.5235 27.438C43.3315 27.786 43.2355 28.188 43.2355 28.644C43.2355 29.1 43.3315 29.508 43.5235 29.868C43.7155 30.216 43.9795 30.492 44.3155 30.696C44.6515 30.888 45.0355 30.984 45.4675 30.984ZM55.7335 33.18C54.8575 33.18 54.0655 32.982 53.3575 32.586C52.6615 32.178 52.1035 31.632 51.6835 30.948C51.2755 30.252 51.0715 29.478 51.0715 28.626C51.0715 27.774 51.2755 27.012 51.6835 26.34C52.0915 25.656 52.6495 25.116 53.3575 24.72C54.0655 24.312 54.8515 24.108 55.7155 24.108C56.6035 24.108 57.3955 24.312 58.0915 24.72C58.7995 25.116 59.3575 25.656 59.7655 26.34C60.1735 27.012 60.3775 27.774 60.3775 28.626C60.3775 29.478 60.1735 30.252 59.7655 30.948C59.3575 31.632 58.7995 32.178 58.0915 32.586C57.3955 32.982 56.6095 33.18 55.7335 33.18ZM55.7155 30.984C56.1595 30.984 56.5495 30.888 56.8855 30.696C57.2335 30.492 57.4975 30.216 57.6775 29.868C57.8695 29.508 57.9655 29.1 57.9655 28.644C57.9655 28.188 57.8695 27.786 57.6775 27.438C57.4855 27.09 57.2215 26.82 56.8855 26.628C56.5495 26.424 56.1595 26.322 55.7155 26.322C55.2835 26.322 54.8995 26.424 54.5635 26.628C54.2275 26.82 53.9635 27.09 53.7715 27.438C53.5795 27.786 53.4835 28.188 53.4835 28.644C53.4835 29.1 53.5795 29.508 53.7715 29.868C53.9635 30.216 54.2275 30.492 54.5635 30.696C54.8995 30.888 55.2835 30.984 55.7155 30.984ZM67.4396 33L64.0736 28.518L67.4216 24.306H70.1396L66.2156 29.058L66.3056 27.906L70.3196 33H67.4396ZM61.8956 33V19.986H64.2536V33H61.8956ZM75.173 33V20.346H76.883L77.621 22.794V33H75.173ZM83.921 33L76.415 23.28L76.883 20.346L84.389 30.066L83.921 33ZM83.921 33L83.219 30.624V20.346H85.685V33H83.921ZM92.0851 33.18C91.2091 33.18 90.4171 32.982 89.7091 32.586C89.0131 32.178 88.4551 31.632 88.0351 30.948C87.6271 30.252 87.4231 29.478 87.4231 28.626C87.4231 27.774 87.6271 27.012 88.0351 26.34C88.4431 25.656 89.0011 25.116 89.7091 24.72C90.4171 24.312 91.2031 24.108 92.0671 24.108C92.9551 24.108 93.7471 24.312 94.4431 24.72C95.1511 25.116 95.7091 25.656 96.1171 26.34C96.5251 27.012 96.7291 27.774 96.7291 28.626C96.7291 29.478 96.5251 30.252 96.1171 30.948C95.7091 31.632 95.1511 32.178 94.4431 32.586C93.7471 32.982 92.9611 33.18 92.0851 33.18ZM92.0671 30.984C92.5111 30.984 92.9011 30.888 93.2371 30.696C93.5851 30.492 93.8491 30.216 94.0291 29.868C94.2211 29.508 94.3171 29.1 94.3171 28.644C94.3171 28.188 94.2211 27.786 94.0291 27.438C93.8371 27.09 93.5731 26.82 93.2371 26.628C92.9011 26.424 92.5111 26.322 92.0671 26.322C91.6351 26.322 91.2511 26.424 90.9151 26.628C90.5791 26.82 90.3151 27.09 90.1231 27.438C89.9311 27.786 89.8351 28.188 89.8351 28.644C89.8351 29.1 89.9311 29.508 90.1231 29.868C90.3151 30.216 90.5791 30.492 90.9151 30.696C91.2511 30.888 91.6351 30.984 92.0671 30.984ZM100.376 33L97.1178 24.306H99.4938L101.618 30.624L100.898 30.642L103.076 24.306H104.786L106.964 30.642L106.244 30.624L108.368 24.306H110.744L107.504 33H105.794L103.598 26.988H104.264L102.068 33H100.376Z" fill="white"/>
<path d="M133.002 34.001C132.803 34.0022 132.609 33.9441 132.443 33.8343C132.278 33.7245 132.149 33.5679 132.073 33.3845C131.996 33.201 131.977 32.9991 132.016 32.8043C132.055 32.6096 132.151 32.4309 132.292 32.291L137.592 27.001L132.292 21.711C132.128 21.5197 132.042 21.2736 132.052 21.022C132.062 20.7703 132.166 20.5315 132.344 20.3534C132.522 20.1753 132.761 20.071 133.013 20.0613C133.265 20.0516 133.511 20.1372 133.702 20.301L139.702 26.301C139.888 26.4884 139.993 26.7418 139.993 27.006C139.993 27.2702 139.888 27.5236 139.702 27.711L133.702 33.711C133.516 33.8957 133.264 33.9999 133.002 34.001Z" fill="white"/>
<path d="M127.002 34.0002C126.803 34.0013 126.609 33.9433 126.443 33.8335C126.278 33.7237 126.149 33.5671 126.073 33.3837C125.996 33.2002 125.977 32.9983 126.016 32.8035C126.055 32.6088 126.151 32.4301 126.292 32.2902L131.592 27.0002L126.292 21.7102C126.104 21.5219 125.998 21.2665 125.998 21.0002C125.998 20.7339 126.104 20.4785 126.292 20.2902C126.48 20.1019 126.736 19.9961 127.002 19.9961C127.268 19.9961 127.524 20.1019 127.712 20.2902L133.712 26.2902C133.898 26.4775 134.003 26.731 134.003 26.9952C134.003 27.2594 133.898 27.5128 133.712 27.7002L127.712 33.7002C127.619 33.7947 127.509 33.8698 127.387 33.9213C127.265 33.9728 127.134 33.9996 127.002 34.0002Z" fill="white"/>
</svg>
