<svg width="26" height="26" viewBox="0 0 26 26" fill="none" xmlns="http://www.w3.org/2000/svg">
<rect x="1.4231" y="1" width="24" height="24" rx="5.5" stroke="#741349"/>
<g clip-path="url(#clip0_785_363)">
<path d="M17.9334 8.85938C17.7422 8.85938 17.5866 9.01498 17.5866 9.20619C17.5866 9.39741 17.7422 9.55301 17.9334 9.55301C18.1246 9.55301 18.2802 9.39743 18.2802 9.20619C18.2802 9.01496 18.1246 8.85938 17.9334 8.85938ZM13.7808 10.2842C12.0854 10.2842 10.7061 11.6635 10.7061 13.3588C10.7061 15.0542 12.0854 16.4335 13.7808 16.4335C15.4761 16.4335 16.8554 15.0542 16.8554 13.3589C16.8554 11.6635 15.4761 10.2842 13.7808 10.2842Z" fill="#741349"/>
<path d="M17.0074 6.21484H10.5541C8.39469 6.21484 6.63788 7.97165 6.63788 10.1311V16.5843C6.63788 18.7438 8.39469 20.5006 10.5541 20.5006H17.0074C19.1668 20.5006 20.9236 18.7438 20.9236 16.5843V10.1311C20.9236 7.97165 19.1668 6.21484 17.0074 6.21484ZM13.7807 17.276C11.6202 17.276 9.86246 15.5183 9.86246 13.3577C9.86246 11.1971 11.6202 9.43945 13.7807 9.43945C15.9413 9.43945 17.699 11.1972 17.699 13.3577C17.699 15.5182 15.9413 17.276 13.7807 17.276ZM17.9334 10.3955C17.277 10.3955 16.7429 9.8615 16.7429 9.20508C16.7429 8.54866 17.277 8.01459 17.9334 8.01459C18.5898 8.01459 19.1238 8.54863 19.1238 9.20505C19.1238 9.86147 18.5898 10.3955 17.9334 10.3955Z" fill="#741349"/>
</g>
<defs>
<clipPath id="clip0_785_363">
<rect width="14.2857" height="14.2857" fill="white" transform="translate(6.63788 6.21484)"/>
</clipPath>
</defs>
</svg>
