<svg width="20" height="18" viewBox="0 0 20 18" fill="none" xmlns="http://www.w3.org/2000/svg">
<path d="M10.3442 17.5293L4.85157 6.75301C4.75991 6.56968 4.83324 6.34968 5.01291 6.25801C5.19257 6.16634 5.41624 6.23968 5.50791 6.41934L11.0116 17.2213C11.4149 16.3377 13.2519 11.8167 10.7036 6.83368C7.92424 1.39234 2.52691 0.512343 2.29957 0.479343C2.14191 0.453677 1.98791 0.534343 1.91457 0.673677C1.81191 0.87901 -0.63376 5.77034 2.14924 11.2117C4.65724 16.1177 9.29191 17.3167 10.3442 17.5293Z" fill="#741349"/>
<path d="M18.4114 5.45898C18.2501 5.46265 14.7814 5.57998 12.1817 8.50598C12.7647 10.3467 12.8454 12.0663 12.7097 13.511L13.5347 12.2937C13.6484 12.1287 13.8757 12.0847 14.0444 12.1983C14.2131 12.312 14.2571 12.5393 14.1434 12.7043L12.4384 15.227C12.2037 16.2573 11.8994 17.0273 11.7197 17.4307C13.1681 17.1483 15.7384 16.2757 17.5681 13.61C20.1897 9.78565 18.8257 5.86598 18.7634 5.70098C18.7121 5.55432 18.5691 5.46265 18.4114 5.45898Z" fill="#741349"/>
</svg>
