<svg width="30" height="30" viewBox="0 0 30 30" fill="none" xmlns="http://www.w3.org/2000/svg">
<rect x="0.5" y="0.5" width="29" height="29" rx="4.5" fill="#741349" stroke="#741349"/>
<path d="M15.0017 9.75169C15.1507 9.75082 15.2965 9.79434 15.4207 9.87669C15.5448 9.95904 15.6416 10.0765 15.6987 10.2141C15.7559 10.3517 15.7707 10.5031 15.7414 10.6492C15.7121 10.7953 15.64 10.9293 15.5342 11.0342L11.5592 15.0017L15.5342 18.9692C15.6571 19.1127 15.7213 19.2972 15.714 19.486C15.7067 19.6747 15.6285 19.8538 15.4949 19.9874C15.3613 20.1209 15.1823 20.1992 14.9935 20.2065C14.8047 20.2138 14.6202 20.1496 14.4767 20.0267L9.97671 15.5267C9.83702 15.3862 9.75862 15.1961 9.75862 14.9979C9.75862 14.7998 9.83702 14.6097 9.97671 14.4692L14.4767 9.96919C14.6164 9.83063 14.805 9.75252 15.0017 9.75169Z" fill="white"/>
<path d="M19.5017 9.75084C19.6507 9.74998 19.7965 9.79349 19.9207 9.87584C20.0448 9.9582 20.1416 10.0756 20.1987 10.2132C20.2559 10.3508 20.2707 10.5023 20.2414 10.6484C20.2121 10.7944 20.14 10.9284 20.0342 11.0333L16.0592 15.0008L20.0342 18.9683C20.1754 19.1096 20.2548 19.3011 20.2548 19.5008C20.2548 19.7006 20.1754 19.8921 20.0342 20.0333C19.893 20.1746 19.7014 20.2539 19.5017 20.2539C19.302 20.2539 19.1104 20.1746 18.9692 20.0333L14.4692 15.5333C14.3295 15.3928 14.2511 15.2027 14.2511 15.0046C14.2511 14.8065 14.3295 14.6164 14.4692 14.4758L18.9692 9.97584C19.0387 9.90498 19.1215 9.8486 19.2129 9.80998C19.3043 9.77136 19.4025 9.75126 19.5017 9.75084Z" fill="white"/>
</svg>
