<svg width="176" height="55" viewBox="0 0 176 55" fill="none" xmlns="http://www.w3.org/2000/svg">
<rect x="0.5" width="175" height="55" rx="10" fill="#741349"/>
<path d="M94.3738 5H12.5C8.63401 5 5.5 8.13401 5.5 12V43C5.5 46.866 8.63401 50 12.5 50H148.5" stroke="white" stroke-width="1.3"/>
<path d="M27.796 33V20.346H30.244V33H27.796ZM29.596 33V30.822H36.04V33H29.596ZM41.4034 33.18C40.5274 33.18 39.7354 32.982 39.0274 32.586C38.3314 32.178 37.7734 31.632 37.3534 30.948C36.9454 30.252 36.7414 29.478 36.7414 28.626C36.7414 27.774 36.9454 27.012 37.3534 26.34C37.7614 25.656 38.3194 25.116 39.0274 24.72C39.7354 24.312 40.5214 24.108 41.3854 24.108C42.2734 24.108 43.0654 24.312 43.7614 24.72C44.4694 25.116 45.0274 25.656 45.4354 26.34C45.8434 27.012 46.0474 27.774 46.0474 28.626C46.0474 29.478 45.8434 30.252 45.4354 30.948C45.0274 31.632 44.4694 32.178 43.7614 32.586C43.0654 32.982 42.2794 33.18 41.4034 33.18ZM41.3854 30.984C41.8294 30.984 42.2194 30.888 42.5554 30.696C42.9034 30.492 43.1674 30.216 43.3474 29.868C43.5394 29.508 43.6354 29.1 43.6354 28.644C43.6354 28.188 43.5394 27.786 43.3474 27.438C43.1554 27.09 42.8914 26.82 42.5554 26.628C42.2194 26.424 41.8294 26.322 41.3854 26.322C40.9534 26.322 40.5694 26.424 40.2334 26.628C39.8974 26.82 39.6334 27.09 39.4414 27.438C39.2494 27.786 39.1534 28.188 39.1534 28.644C39.1534 29.1 39.2494 29.508 39.4414 29.868C39.6334 30.216 39.8974 30.492 40.2334 30.696C40.5694 30.888 40.9534 30.984 41.3854 30.984ZM51.2015 33.18C50.4095 33.18 49.6955 32.982 49.0595 32.586C48.4235 32.19 47.9255 31.65 47.5655 30.966C47.2055 30.282 47.0255 29.514 47.0255 28.662C47.0255 27.798 47.2055 27.024 47.5655 26.34C47.9255 25.656 48.4235 25.116 49.0595 24.72C49.6955 24.324 50.4095 24.126 51.2015 24.126C51.8255 24.126 52.3835 24.252 52.8755 24.504C53.3675 24.756 53.7575 25.11 54.0455 25.566C54.3455 26.01 54.5075 26.514 54.5315 27.078V30.21C54.5075 30.786 54.3455 31.296 54.0455 31.74C53.7575 32.184 53.3675 32.538 52.8755 32.802C52.3835 33.054 51.8255 33.18 51.2015 33.18ZM51.6335 31.002C52.2935 31.002 52.8275 30.786 53.2355 30.354C53.6435 29.91 53.8475 29.34 53.8475 28.644C53.8475 28.188 53.7515 27.786 53.5595 27.438C53.3795 27.078 53.1215 26.802 52.7855 26.61C52.4615 26.406 52.0775 26.304 51.6335 26.304C51.2015 26.304 50.8175 26.406 50.4815 26.61C50.1575 26.802 49.8995 27.078 49.7075 27.438C49.5275 27.786 49.4375 28.188 49.4375 28.644C49.4375 29.112 49.5275 29.526 49.7075 29.886C49.8995 30.234 50.1575 30.51 50.4815 30.714C50.8175 30.906 51.2015 31.002 51.6335 31.002ZM53.7215 33V30.66L54.0995 28.536L53.7215 26.448V24.306H56.0615V33H53.7215ZM61.8195 33.18C61.0155 33.18 60.2955 32.982 59.6595 32.586C59.0235 32.19 58.5195 31.65 58.1475 30.966C57.7875 30.282 57.6075 29.514 57.6075 28.662C57.6075 27.798 57.7875 27.024 58.1475 26.34C58.5195 25.656 59.0175 25.116 59.6415 24.72C60.2775 24.324 61.0035 24.126 61.8195 24.126C62.4435 24.126 63.0015 24.252 63.4935 24.504C63.9975 24.756 64.3995 25.11 64.6995 25.566C65.0115 26.01 65.1795 26.514 65.2035 27.078V30.174C65.1795 30.738 65.0175 31.248 64.7175 31.704C64.4175 32.16 64.0155 32.52 63.5115 32.784C63.0075 33.048 62.4435 33.18 61.8195 33.18ZM62.2155 31.002C62.6595 31.002 63.0435 30.906 63.3675 30.714C63.7035 30.51 63.9615 30.234 64.1415 29.886C64.3335 29.526 64.4295 29.112 64.4295 28.644C64.4295 28.188 64.3335 27.786 64.1415 27.438C63.9615 27.078 63.7035 26.802 63.3675 26.61C63.0435 26.406 62.6655 26.304 62.2335 26.304C61.7895 26.304 61.3995 26.406 61.0635 26.61C60.7395 26.814 60.4815 27.09 60.2895 27.438C60.1095 27.786 60.0195 28.188 60.0195 28.644C60.0195 29.112 60.1095 29.526 60.2895 29.886C60.4815 30.234 60.7455 30.51 61.0815 30.714C61.4175 30.906 61.7955 31.002 62.2155 31.002ZM66.6435 33H64.3035V30.66L64.6815 28.536L64.2855 26.448V19.986H66.6435V33ZM72.4972 33V20.346H74.2252L79.3552 28.554H78.3652L83.4772 20.346H85.2052V33H82.7752V24.54L83.2432 24.684L79.6792 30.408H78.0232L74.4592 24.684L74.9452 24.54V33H72.4972ZM91.6241 33.18C90.7481 33.18 89.9561 32.982 89.2481 32.586C88.5521 32.178 87.9941 31.632 87.5741 30.948C87.1661 30.252 86.9621 29.478 86.9621 28.626C86.9621 27.774 87.1661 27.012 87.5741 26.34C87.9821 25.656 88.5401 25.116 89.2481 24.72C89.9561 24.312 90.7421 24.108 91.6061 24.108C92.4941 24.108 93.2861 24.312 93.9821 24.72C94.6901 25.116 95.2481 25.656 95.6561 26.34C96.0641 27.012 96.2681 27.774 96.2681 28.626C96.2681 29.478 96.0641 30.252 95.6561 30.948C95.2481 31.632 94.6901 32.178 93.9821 32.586C93.2861 32.982 92.5001 33.18 91.6241 33.18ZM91.6061 30.984C92.0501 30.984 92.4401 30.888 92.7761 30.696C93.1241 30.492 93.3881 30.216 93.5681 29.868C93.7601 29.508 93.8561 29.1 93.8561 28.644C93.8561 28.188 93.7601 27.786 93.5681 27.438C93.3761 27.09 93.1121 26.82 92.7761 26.628C92.4401 26.424 92.0501 26.322 91.6061 26.322C91.1741 26.322 90.7901 26.424 90.4541 26.628C90.1181 26.82 89.8541 27.09 89.6621 27.438C89.4701 27.786 89.3741 28.188 89.3741 28.644C89.3741 29.1 89.4701 29.508 89.6621 29.868C89.8541 30.216 90.1181 30.492 90.4541 30.696C90.7901 30.888 91.1741 30.984 91.6061 30.984ZM97.7862 33V24.306H100.144V33H97.7862ZM100.144 28.194L99.2262 27.582C99.3342 26.514 99.6462 25.674 100.162 25.062C100.678 24.438 101.422 24.126 102.394 24.126C102.814 24.126 103.192 24.198 103.528 24.342C103.864 24.474 104.17 24.696 104.446 25.008L102.97 26.7C102.838 26.556 102.676 26.448 102.484 26.376C102.304 26.304 102.094 26.268 101.854 26.268C101.35 26.268 100.936 26.43 100.612 26.754C100.3 27.066 100.144 27.546 100.144 28.194ZM109.186 33.18C108.274 33.18 107.464 32.988 106.756 32.604C106.048 32.208 105.484 31.668 105.064 30.984C104.656 30.3 104.452 29.52 104.452 28.644C104.452 27.78 104.65 27.012 105.046 26.34C105.454 25.656 106.006 25.116 106.702 24.72C107.398 24.312 108.172 24.108 109.024 24.108C109.864 24.108 110.602 24.3 111.238 24.684C111.886 25.056 112.39 25.572 112.75 26.232C113.122 26.88 113.308 27.618 113.308 28.446C113.308 28.602 113.296 28.764 113.272 28.932C113.26 29.088 113.23 29.268 113.182 29.472L105.874 29.49V27.726L112.084 27.708L111.13 28.446C111.106 27.93 111.01 27.498 110.842 27.15C110.686 26.802 110.452 26.538 110.14 26.358C109.84 26.166 109.468 26.07 109.024 26.07C108.556 26.07 108.148 26.178 107.8 26.394C107.452 26.598 107.182 26.892 106.99 27.276C106.81 27.648 106.72 28.092 106.72 28.608C106.72 29.136 106.816 29.598 107.008 29.994C107.212 30.378 107.5 30.678 107.872 30.894C108.244 31.098 108.676 31.2 109.168 31.2C109.612 31.2 110.014 31.128 110.374 30.984C110.734 30.828 111.046 30.6 111.31 30.3L112.696 31.686C112.276 32.178 111.76 32.55 111.148 32.802C110.548 33.054 109.894 33.18 109.186 33.18Z" fill="white"/>
<path d="M136.502 34.001C136.303 34.0022 136.109 33.9441 135.943 33.8343C135.778 33.7245 135.649 33.5679 135.573 33.3845C135.496 33.201 135.477 32.9991 135.516 32.8043C135.555 32.6096 135.651 32.4309 135.792 32.291L141.092 27.001L135.792 21.711C135.628 21.5197 135.542 21.2736 135.552 21.022C135.562 20.7703 135.666 20.5315 135.844 20.3534C136.022 20.1753 136.261 20.071 136.513 20.0613C136.765 20.0516 137.011 20.1372 137.202 20.301L143.202 26.301C143.388 26.4884 143.493 26.7418 143.493 27.006C143.493 27.2702 143.388 27.5236 143.202 27.711L137.202 33.711C137.016 33.8957 136.764 33.9999 136.502 34.001Z" fill="white"/>
<path d="M130.502 34.0002C130.303 34.0013 130.109 33.9433 129.943 33.8335C129.778 33.7237 129.649 33.5671 129.573 33.3837C129.496 33.2002 129.477 32.9983 129.516 32.8035C129.555 32.6088 129.651 32.4301 129.792 32.2902L135.092 27.0002L129.792 21.7102C129.604 21.5219 129.498 21.2665 129.498 21.0002C129.498 20.7339 129.604 20.4785 129.792 20.2902C129.98 20.1019 130.236 19.9961 130.502 19.9961C130.768 19.9961 131.024 20.1019 131.212 20.2902L137.212 26.2902C137.398 26.4775 137.503 26.731 137.503 26.9952C137.503 27.2594 137.398 27.5128 137.212 27.7002L131.212 33.7002C131.119 33.7947 131.009 33.8698 130.887 33.9213C130.765 33.9728 130.634 33.9996 130.502 34.0002Z" fill="white"/>
</svg>
