<svg width="40" height="40" viewBox="0 0 40 40" fill="none" xmlns="http://www.w3.org/2000/svg">
<rect x="0.5" y="0.5" width="39" height="39" rx="5.5" stroke="#741349"/>
<g clip-path="url(#clip0_179_3103)">
<path d="M20.3984 9.59961C18.4101 9.60226 16.504 10.3933 15.0981 11.7992C13.6921 13.2052 12.9011 15.1113 12.8984 17.0996C12.8984 22.484 19.8859 29.2277 20.1828 29.5121C20.2406 29.5682 20.3179 29.5996 20.3984 29.5996C20.479 29.5996 20.5563 29.5682 20.6141 29.5121C20.9109 29.2277 27.8984 22.484 27.8984 17.0996C27.8958 15.1113 27.1048 13.2052 25.6988 11.7992C24.2929 10.3933 22.3867 9.60226 20.3984 9.59961ZM20.3984 20.5371C19.7186 20.5371 19.054 20.3355 18.4887 19.9578C17.9234 19.5801 17.4828 19.0432 17.2226 18.4151C16.9624 17.787 16.8944 17.0958 17.027 16.429C17.1596 15.7622 17.487 15.1497 17.9678 14.6689C18.4485 14.1882 19.061 13.8608 19.7278 13.7282C20.3946 13.5955 21.0858 13.6636 21.7139 13.9238C22.342 14.184 22.8789 14.6245 23.2566 15.1898C23.6343 15.7551 23.8359 16.4197 23.8359 17.0996C23.8354 18.0111 23.473 18.8851 22.8285 19.5297C22.1839 20.1742 21.3099 20.5365 20.3984 20.5371Z" fill="#741349"/>
</g>
<defs>
<clipPath id="clip0_179_3103">
<rect width="20" height="20" fill="white" transform="translate(10.3984 9.59961)"/>
</clipPath>
</defs>
</svg>
