<svg width="40" height="40" viewBox="0 0 40 40" fill="none" xmlns="http://www.w3.org/2000/svg">
<rect x="0.5" y="0.5" width="39" height="39" rx="5.5" stroke="#741349"/>
<g clip-path="url(#clip0_179_3130)">
<path d="M23.3566 20.4297L21.6816 22.1104C21.0023 22.792 19.8072 22.8067 19.1132 22.1104L17.4381 20.4297L11.4219 26.4655C11.6458 26.569 11.8927 26.6308 12.1552 26.6308H28.6396C28.9021 26.6308 29.1489 26.5691 29.3728 26.4655L23.3566 20.4297Z" fill="#741349"/>
<path d="M28.6406 12.5684H12.1562C11.8937 12.5684 11.6468 12.6302 11.423 12.7337L17.8518 19.1838C17.8522 19.1843 17.8527 19.1843 17.8531 19.1848C17.8534 19.185 17.8536 19.1854 17.8536 19.1858L19.944 21.283C20.166 21.5051 20.6309 21.5051 20.853 21.283L22.9429 19.1861C22.9429 19.1861 22.9434 19.1852 22.9438 19.1848C22.9438 19.1848 22.9448 19.1843 22.9452 19.1838L29.3738 12.7337C29.15 12.6301 28.9031 12.5684 28.6406 12.5684ZM10.5854 13.5532C10.4695 13.7875 10.3984 14.0476 10.3984 14.3262V24.873C10.3984 25.1516 10.4695 25.4117 10.5854 25.646L16.612 19.5998L10.5854 13.5532ZM30.2115 13.5531L24.1849 19.5998L30.2115 25.6461C30.3273 25.4118 30.3984 25.1517 30.3984 24.873V14.3262C30.3984 14.0475 30.3273 13.7874 30.2115 13.5531Z" fill="#741349"/>
</g>
<defs>
<clipPath id="clip0_179_3130">
<rect width="20" height="20" fill="white" transform="translate(10.3984 9.59961)"/>
</clipPath>
</defs>
</svg>
