<svg width="49" height="49" viewBox="0 0 49 49" fill="none" xmlns="http://www.w3.org/2000/svg">
<path d="M7 1C3.68629 1 1 3.68629 1 7V42C1 45.3137 3.68629 48 7 48H42C45.3137 48 48 45.3137 48 42V7C48 3.68629 45.3137 1 42 1H7Z" stroke="#741349" stroke-width="2"/>
<path d="M31.0611 30.5801H12.522C12.0369 30.5801 11.6436 30.9734 11.6436 31.4585V36.3646C11.6436 37.8177 12.8258 38.9999 14.2789 38.9999H29.3042C30.7574 38.9999 31.9396 37.8177 31.9396 36.3646V31.4585C31.9396 30.9734 31.5463 30.5801 31.0611 30.5801ZM23.6861 35.6099H20.281C19.7959 35.6099 19.4026 35.2166 19.4026 34.7315C19.4026 34.2463 19.7959 33.853 20.281 33.853H23.6861C24.1712 33.853 24.5645 34.2463 24.5645 34.7315C24.5645 35.2166 24.1712 35.6099 23.6861 35.6099ZM30.1827 27.1965C30.1827 26.7114 29.7894 26.3181 29.3042 26.3181H14.2789C13.7938 26.3181 13.4005 26.7114 13.4005 27.1965V28.8232H30.1827V27.1965ZM28.2012 24.5612C28.0173 23.3458 27.2934 22.2239 26.079 21.287C25.0021 20.456 23.5082 19.7572 21.8725 19.3193C21.2653 19.1567 20.6888 19.6659 20.7752 20.2886L20.8075 20.5211C20.8691 20.9653 20.7389 21.3963 20.4411 21.7329C20.1496 22.0625 19.7232 22.2412 19.2832 22.2429L18.6847 22.2453C17.2204 22.2512 15.979 23.2275 15.5701 24.5612H28.2012V24.5612ZM37.5834 20.3964L26.9589 9.77193C26.4612 9.27414 25.7994 9 25.0955 9C24.3916 9 23.7297 9.27414 23.232 9.77193L21.2101 11.7938C21.0454 11.9586 20.9528 12.182 20.9528 12.415C20.9528 12.6479 21.0454 12.8713 21.2101 13.0361L34.3192 26.1452C34.484 26.31 34.7074 26.4025 34.9404 26.4025C35.1734 26.4025 35.3968 26.31 35.5616 26.1452L37.5835 24.1233C38.0813 23.6256 38.3553 22.9638 38.3553 22.2599C38.3553 21.5559 38.0812 20.8941 37.5834 20.3964Z" fill="#741349"/>
</svg>
