<svg width="49" height="49" viewBox="0 0 49 49" fill="none" xmlns="http://www.w3.org/2000/svg">
<path d="M7 1C3.68629 1 1 3.68629 1 7V42C1 45.3137 3.68629 48 7 48H42C45.3137 48 48 45.3137 48 42V7C48 3.68629 45.3137 1 42 1H7Z" stroke="#741349" stroke-width="2"/>
<g clip-path="url(#clip0_178_1266)">
<path d="M35.6392 29.8379L34.335 29.3742L34.9294 28.1241C35.1372 27.6869 34.8709 27.3705 34.7843 27.2839C34.6977 27.1974 34.3814 26.9311 33.9441 27.139L32.694 27.7332L32.2303 26.4291C32.068 25.973 31.6561 25.9375 31.5337 25.9375C31.4113 25.9375 30.9993 25.973 30.8371 26.4291L30.3732 27.7332L29.1232 27.139C28.6861 26.9311 28.3696 27.1974 28.2829 27.2839C28.1964 27.3705 27.9302 27.6869 28.138 28.1242L28.7324 29.3742L27.4281 29.838C26.972 30.0002 26.9365 30.4121 26.9365 30.5345C26.9365 30.6569 26.9719 31.069 27.4282 31.2312L28.7324 31.6949L28.138 32.945C27.9302 33.3822 28.1964 33.6986 28.283 33.7852C28.3695 33.8717 28.6861 34.138 29.1232 33.9302L30.3732 33.336L30.8371 34.6399C30.9993 35.0962 31.4113 35.1316 31.5337 35.1316C31.6561 35.1316 32.068 35.0962 32.2303 34.64L32.694 33.336L33.9441 33.9302C34.3813 34.1379 34.6977 33.8717 34.7843 33.7852C34.8709 33.6987 35.1371 33.3822 34.9293 32.945L34.335 31.6949L35.6392 31.2312C36.0953 31.069 36.1308 30.6569 36.1308 30.5345C36.1308 30.4121 36.0953 30.0002 35.6392 29.8379ZM32.4126 31.4135H30.6548V29.6557H32.4126V31.4135Z" fill="#741349"/>
<path d="M31.5336 22.0684C26.858 22.0684 23.0677 25.8587 23.0677 30.5342C23.0677 35.2098 26.858 39.0001 31.5336 39.0001C36.2092 39.0001 39.9995 35.2098 39.9995 30.5343C39.9995 25.8587 36.2092 22.0684 31.5336 22.0684ZM36.6893 32.6698C36.8992 33.5088 36.6614 34.3936 36.0272 35.0278C35.3929 35.662 34.5081 35.8998 33.6691 35.6899C33.2243 36.4316 32.4306 36.8891 31.5336 36.8891C30.6367 36.8891 29.8429 36.4316 29.3981 35.6899C28.5589 35.9 27.6743 35.6621 27.04 35.0278C26.4058 34.3935 26.168 33.5087 26.3779 32.6697C25.6363 32.2249 25.1787 31.4311 25.1787 30.5342C25.1787 29.6372 25.6363 28.8434 26.3779 28.3986C26.168 27.5596 26.4058 26.6748 27.04 26.0406C27.6742 25.4064 28.559 25.1687 29.398 25.3784C29.8428 24.6368 30.6366 24.1793 31.5336 24.1793C32.4306 24.1793 33.2243 24.6368 33.6691 25.3784C34.5082 25.1685 35.393 25.4063 36.0272 26.0405C36.6614 26.6748 36.8992 27.5595 36.6893 28.3986C37.4309 28.8434 37.8885 29.6371 37.8885 30.5341C37.8885 31.4312 37.431 32.225 36.6893 32.6698ZM15.7256 23.8256C15.1806 23.8256 14.7373 24.269 14.7373 24.8139C14.7373 25.3589 15.1806 25.8023 15.7256 25.8023C16.2706 25.8023 16.7139 25.3589 16.7139 24.8139C16.7139 24.269 16.2706 23.8256 15.7256 23.8256Z" fill="#741349"/>
<path d="M24.3049 23.3048C24.9857 22.624 25.7484 22.0498 26.5807 21.5889C26.3326 20.7439 25.9464 19.9148 25.408 19.1296L18.462 9L11.516 19.1296C7.74691 24.6262 11.408 32.2676 18.0672 32.5376C18.3303 32.5483 18.5937 32.5483 18.8568 32.5376C19.7716 32.5005 20.6293 32.3235 21.4195 32.0329C21.3467 31.5366 21.3103 31.0357 21.3104 30.5341C21.3104 29.1547 21.581 27.8156 22.1146 26.554C22.6296 25.3364 23.3665 24.2432 24.3049 23.3048ZM15.7159 17.8523H17.4737V19.6101H15.7159V17.8523ZM15.7262 27.56C14.2119 27.56 12.98 26.328 12.98 24.8138C12.98 23.2996 14.2119 22.0677 15.7262 22.0677C17.2404 22.0677 18.4723 23.2996 18.4723 24.8138C18.4723 26.328 17.2404 27.56 15.7262 27.56ZM21.8306 21.4773H20.0728V19.7195H21.8306V21.4773Z" fill="#741349"/>
</g>
<defs>
<clipPath id="clip0_178_1266">
<rect width="30" height="30" fill="white" transform="translate(10 9)"/>
</clipPath>
</defs>
</svg>
