<svg width="50" height="50" viewBox="0 0 50 50" fill="none" xmlns="http://www.w3.org/2000/svg">
<circle opacity="0.15" cx="25" cy="25" r="25" fill="#741349"/>
<circle cx="24.5192" cy="24.5192" r="18.2692" fill="#741349"/>
<path d="M30.425 23.2092L21.4442 18.0205C21.1875 17.8686 20.8952 17.7874 20.5969 17.7852C20.128 17.7852 19.6783 17.9714 19.3468 18.303C19.0152 18.6345 18.829 19.0842 18.829 19.5531V30.6888C18.829 30.9999 18.9124 31.3054 19.0705 31.5734C19.2286 31.8414 19.4556 32.0621 19.7279 32.2127C20.0002 32.3633 20.3079 32.4381 20.6189 32.4295C20.9299 32.4209 21.233 32.3292 21.4965 32.1638L30.4877 26.4835C30.7673 26.3085 30.9968 26.0641 31.1538 25.7741C31.3108 25.484 31.39 25.1583 31.3837 24.8285C31.3774 24.4988 31.2858 24.1763 31.1177 23.8925C30.9497 23.6087 30.711 23.3733 30.425 23.2092Z" fill="white"/>
</svg>
