<svg width="117" height="41" viewBox="0 0 117 41" fill="none" xmlns="http://www.w3.org/2000/svg">
<rect y="0.265625" width="117" height="40" rx="5" fill="#741349"/>
<path d="M71.6308 4.26562H8C5.79087 4.26562 4 6.05649 4 8.26563V32.2656C4 34.4748 5.79086 36.2656 8 36.2656H105" stroke="white"/>
<path d="M14.908 21.1496V19.6656H17.19C17.6567 19.6656 18.016 19.549 18.268 19.3156C18.5293 19.073 18.66 18.7416 18.66 18.3216C18.66 17.939 18.5293 17.6216 18.268 17.3696C18.016 17.1083 17.6567 16.9776 17.19 16.9776H14.908V15.4236H17.358C17.9927 15.4236 18.548 15.5496 19.024 15.8016C19.5093 16.0443 19.8827 16.3803 20.144 16.8096C20.4147 17.239 20.55 17.7336 20.55 18.2936C20.55 18.8723 20.4147 19.3763 20.144 19.8056C19.8827 20.2256 19.5093 20.557 19.024 20.7996C18.5387 21.033 17.974 21.1496 17.33 21.1496H14.908ZM13.508 25.2656V15.4236H15.412V25.2656H13.508ZM18.884 25.2656L15.636 21.0096L17.386 20.4636L21.194 25.2656H18.884ZM25.1183 25.4056C24.4089 25.4056 23.7789 25.2563 23.2283 24.9576C22.6776 24.6496 22.2389 24.2296 21.9123 23.6976C21.5949 23.1656 21.4363 22.559 21.4363 21.8776C21.4363 21.2056 21.5903 20.6083 21.8983 20.0856C22.2156 19.5536 22.6449 19.1336 23.1863 18.8256C23.7276 18.5083 24.3296 18.3496 24.9923 18.3496C25.6456 18.3496 26.2196 18.499 26.7143 18.7976C27.2183 19.087 27.6103 19.4883 27.8903 20.0016C28.1796 20.5056 28.3243 21.0796 28.3243 21.7236C28.3243 21.845 28.3149 21.971 28.2963 22.1016C28.2869 22.223 28.2636 22.363 28.2263 22.5216L22.5423 22.5356V21.1636L27.3723 21.1496L26.6303 21.7236C26.6116 21.3223 26.5369 20.9863 26.4063 20.7156C26.2849 20.445 26.1029 20.2396 25.8603 20.0996C25.6269 19.9503 25.3376 19.8756 24.9923 19.8756C24.6283 19.8756 24.3109 19.9596 24.0403 20.1276C23.7696 20.2863 23.5596 20.515 23.4103 20.8136C23.2703 21.103 23.2003 21.4483 23.2003 21.8496C23.2003 22.2603 23.2749 22.6196 23.4243 22.9276C23.5829 23.2263 23.8069 23.4596 24.0963 23.6276C24.3856 23.7863 24.7216 23.8656 25.1043 23.8656C25.4496 23.8656 25.7623 23.8096 26.0423 23.6976C26.3223 23.5763 26.5649 23.399 26.7703 23.1656L27.8483 24.2436C27.5216 24.6263 27.1203 24.9156 26.6443 25.1116C26.1776 25.3076 25.6689 25.4056 25.1183 25.4056ZM32.2865 25.4056C31.6705 25.4056 31.1152 25.2516 30.6205 24.9436C30.1258 24.6356 29.7385 24.2156 29.4585 23.6836C29.1785 23.1516 29.0385 22.5543 29.0385 21.8916C29.0385 21.2196 29.1785 20.6176 29.4585 20.0856C29.7385 19.5536 30.1258 19.1336 30.6205 18.8256C31.1152 18.5176 31.6705 18.3636 32.2865 18.3636C32.7718 18.3636 33.2058 18.4616 33.5885 18.6576C33.9712 18.8536 34.2745 19.129 34.4985 19.4836C34.7318 19.829 34.8578 20.221 34.8765 20.6596V23.0956C34.8578 23.5436 34.7318 23.9403 34.4985 24.2856C34.2745 24.631 33.9712 24.9063 33.5885 25.1116C33.2058 25.3076 32.7718 25.4056 32.2865 25.4056ZM32.6225 23.7116C33.1358 23.7116 33.5512 23.5436 33.8685 23.2076C34.1858 22.8623 34.3445 22.419 34.3445 21.8776C34.3445 21.523 34.2698 21.2103 34.1205 20.9396C33.9805 20.6596 33.7798 20.445 33.5185 20.2956C33.2665 20.137 32.9678 20.0576 32.6225 20.0576C32.2865 20.0576 31.9878 20.137 31.7265 20.2956C31.4745 20.445 31.2738 20.6596 31.1245 20.9396C30.9845 21.2103 30.9145 21.523 30.9145 21.8776C30.9145 22.2416 30.9845 22.5636 31.1245 22.8436C31.2738 23.1143 31.4745 23.329 31.7265 23.4876C31.9878 23.637 32.2865 23.7116 32.6225 23.7116ZM34.2465 25.2656V23.4456L34.5405 21.7936L34.2465 20.1696V18.5036H36.0665V25.2656H34.2465ZM40.545 25.4056C39.9196 25.4056 39.3596 25.2516 38.865 24.9436C38.3703 24.6356 37.9783 24.2156 37.689 23.6836C37.409 23.1516 37.269 22.5543 37.269 21.8916C37.269 21.2196 37.409 20.6176 37.689 20.0856C37.9783 19.5536 38.3656 19.1336 38.851 18.8256C39.3456 18.5176 39.9103 18.3636 40.545 18.3636C41.0303 18.3636 41.4643 18.4616 41.847 18.6576C42.239 18.8536 42.5516 19.129 42.785 19.4836C43.0276 19.829 43.1583 20.221 43.177 20.6596V23.0676C43.1583 23.5063 43.0323 23.903 42.799 24.2576C42.5656 24.6123 42.253 24.8923 41.861 25.0976C41.469 25.303 41.0303 25.4056 40.545 25.4056ZM40.853 23.7116C41.1983 23.7116 41.497 23.637 41.749 23.4876C42.0103 23.329 42.211 23.1143 42.351 22.8436C42.5003 22.5636 42.575 22.2416 42.575 21.8776C42.575 21.523 42.5003 21.2103 42.351 20.9396C42.211 20.6596 42.0103 20.445 41.749 20.2956C41.497 20.137 41.203 20.0576 40.867 20.0576C40.5216 20.0576 40.2183 20.137 39.957 20.2956C39.705 20.4543 39.5043 20.669 39.355 20.9396C39.215 21.2103 39.145 21.523 39.145 21.8776C39.145 22.2416 39.215 22.5636 39.355 22.8436C39.5043 23.1143 39.7096 23.329 39.971 23.4876C40.2323 23.637 40.5263 23.7116 40.853 23.7116ZM44.297 25.2656H42.477V23.4456L42.771 21.7936L42.463 20.1696V15.1436H44.297V25.2656ZM48.8498 25.2656V15.4236H50.1938L54.1838 21.8076H53.4138L57.3898 15.4236H58.7338V25.2656H56.8438V18.6856L57.2078 18.7976L54.4358 23.2496H53.1478L50.3758 18.7976L50.7538 18.6856V25.2656H48.8498ZM63.7263 25.4056C63.045 25.4056 62.429 25.2516 61.8783 24.9436C61.337 24.6263 60.903 24.2016 60.5763 23.6696C60.259 23.1283 60.1003 22.5263 60.1003 21.8636C60.1003 21.201 60.259 20.6083 60.5763 20.0856C60.8937 19.5536 61.3277 19.1336 61.8783 18.8256C62.429 18.5083 63.0403 18.3496 63.7123 18.3496C64.403 18.3496 65.019 18.5083 65.5603 18.8256C66.111 19.1336 66.545 19.5536 66.8623 20.0856C67.1797 20.6083 67.3383 21.201 67.3383 21.8636C67.3383 22.5263 67.1797 23.1283 66.8623 23.6696C66.545 24.2016 66.111 24.6263 65.5603 24.9436C65.019 25.2516 64.4077 25.4056 63.7263 25.4056ZM63.7123 23.6976C64.0577 23.6976 64.361 23.623 64.6223 23.4736C64.893 23.315 65.0983 23.1003 65.2383 22.8296C65.3877 22.5496 65.4623 22.2323 65.4623 21.8776C65.4623 21.523 65.3877 21.2103 65.2383 20.9396C65.089 20.669 64.8837 20.459 64.6223 20.3096C64.361 20.151 64.0577 20.0716 63.7123 20.0716C63.3763 20.0716 63.0777 20.151 62.8163 20.3096C62.555 20.459 62.3497 20.669 62.2003 20.9396C62.051 21.2103 61.9763 21.523 61.9763 21.8776C61.9763 22.2323 62.051 22.5496 62.2003 22.8296C62.3497 23.1003 62.555 23.315 62.8163 23.4736C63.0777 23.623 63.3763 23.6976 63.7123 23.6976ZM68.519 25.2656V18.5036H70.353V25.2656H68.519ZM70.353 21.5276L69.639 21.0516C69.723 20.221 69.9657 19.5676 70.367 19.0916C70.7684 18.6063 71.347 18.3636 72.103 18.3636C72.4297 18.3636 72.7237 18.4196 72.985 18.5316C73.2464 18.6343 73.4844 18.807 73.699 19.0496L72.551 20.3656C72.4484 20.2536 72.3224 20.1696 72.173 20.1136C72.033 20.0576 71.8697 20.0296 71.683 20.0296C71.291 20.0296 70.969 20.1556 70.717 20.4076C70.4744 20.6503 70.353 21.0236 70.353 21.5276ZM77.3858 25.4056C76.6765 25.4056 76.0465 25.2563 75.4958 24.9576C74.9452 24.6496 74.5065 24.2296 74.1798 23.6976C73.8625 23.1656 73.7038 22.559 73.7038 21.8776C73.7038 21.2056 73.8578 20.6083 74.1658 20.0856C74.4832 19.5536 74.9125 19.1336 75.4538 18.8256C75.9952 18.5083 76.5972 18.3496 77.2598 18.3496C77.9132 18.3496 78.4872 18.499 78.9818 18.7976C79.4858 19.087 79.8778 19.4883 80.1578 20.0016C80.4472 20.5056 80.5918 21.0796 80.5918 21.7236C80.5918 21.845 80.5825 21.971 80.5638 22.1016C80.5545 22.223 80.5312 22.363 80.4938 22.5216L74.8098 22.5356V21.1636L79.6398 21.1496L78.8978 21.7236C78.8792 21.3223 78.8045 20.9863 78.6738 20.7156C78.5525 20.445 78.3705 20.2396 78.1278 20.0996C77.8945 19.9503 77.6052 19.8756 77.2598 19.8756C76.8958 19.8756 76.5785 19.9596 76.3078 20.1276C76.0372 20.2863 75.8272 20.515 75.6778 20.8136C75.5378 21.103 75.4678 21.4483 75.4678 21.8496C75.4678 22.2603 75.5425 22.6196 75.6918 22.9276C75.8505 23.2263 76.0745 23.4596 76.3638 23.6276C76.6532 23.7863 76.9892 23.8656 77.3718 23.8656C77.7172 23.8656 78.0298 23.8096 78.3098 23.6976C78.5898 23.5763 78.8325 23.399 79.0378 23.1656L80.1158 24.2436C79.7892 24.6263 79.3878 24.9156 78.9118 25.1116C78.4452 25.3076 77.9365 25.4056 77.3858 25.4056Z" fill="white"/>
<path d="M95.5014 25.5159C95.3525 25.5168 95.2066 25.4732 95.0825 25.3909C94.9583 25.3085 94.8615 25.1911 94.8044 25.0535C94.7473 24.9159 94.7324 24.7644 94.7617 24.6184C94.791 24.4723 94.8632 24.3383 94.9689 24.2334L98.9439 20.2659L94.9689 16.2984C94.8461 16.1549 94.7819 15.9704 94.7891 15.7816C94.7964 15.5928 94.8747 15.4138 95.0083 15.2802C95.1418 15.1466 95.3209 15.0684 95.5096 15.0611C95.6984 15.0538 95.883 15.118 96.0264 15.2409L100.526 19.7409C100.666 19.8814 100.745 20.0715 100.745 20.2696C100.745 20.4678 100.666 20.6579 100.526 20.7984L96.0264 25.2984C95.8867 25.4369 95.6982 25.5151 95.5014 25.5159Z" fill="white"/>
<path d="M91.0014 25.5167C90.8525 25.5176 90.7066 25.4741 90.5825 25.3917C90.4583 25.3094 90.3615 25.1919 90.3044 25.0544C90.2473 24.9168 90.2324 24.7653 90.2617 24.6192C90.291 24.4732 90.3632 24.3391 90.4689 24.2342L94.4439 20.2667L90.4689 16.2992C90.3277 16.158 90.2484 15.9665 90.2484 15.7667C90.2484 15.567 90.3277 15.3755 90.4689 15.2342C90.6102 15.093 90.8017 15.0137 91.0014 15.0137C91.2012 15.0137 91.3927 15.093 91.5339 15.2342L96.0339 19.7342C96.1736 19.8748 96.252 20.0649 96.252 20.263C96.252 20.4611 96.1736 20.6512 96.0339 20.7917L91.5339 25.2917C91.4645 25.3626 91.3816 25.419 91.2902 25.4576C91.1988 25.4962 91.1007 25.5163 91.0014 25.5167Z" fill="white"/>
</svg>
