<svg width="95" height="15" viewBox="0 0 95 15" fill="none" xmlns="http://www.w3.org/2000/svg">
<g clip-path="url(#clip0_170_1995)">
<path d="M14.9609 5.46131C14.9129 5.31267 14.8223 5.18143 14.7002 5.08395C14.5782 4.98648 14.4302 4.92707 14.2746 4.91315L9.94517 4.52001L8.23322 0.512971C8.10695 0.219321 7.81948 0.0292969 7.50008 0.0292969C7.18067 0.0292969 6.89318 0.219351 6.76696 0.513704L5.05499 4.52004L0.724886 4.91315C0.569496 4.92739 0.421701 4.98691 0.299824 5.08435C0.177948 5.1818 0.0873498 5.31286 0.0392635 5.46131C-0.0594988 5.76507 0.0317047 6.09821 0.272385 6.30822L3.54493 9.17821L2.57992 13.429C2.50932 13.7416 2.63061 14.0646 2.88995 14.2521C3.02932 14.3528 3.19242 14.4041 3.35687 14.4041C3.49867 14.4041 3.6393 14.3659 3.76557 14.2903L7.50008 12.0583L11.2332 14.2903C11.5064 14.4547 11.8508 14.4397 12.1095 14.2521C12.2362 14.1604 12.3331 14.0335 12.3883 13.8871C12.4434 13.7408 12.4543 13.5815 12.4196 13.429L11.4546 9.17821L14.7271 6.3088C14.8448 6.20599 14.9297 6.07085 14.9713 5.92018C15.0129 5.76951 15.0092 5.60994 14.9609 5.46131Z" fill="#FFC107"/>
</g>
<g clip-path="url(#clip1_170_1995)">
<path d="M34.9609 5.46131C34.9129 5.31267 34.8223 5.18143 34.7002 5.08395C34.5782 4.98648 34.4302 4.92707 34.2746 4.91315L29.9452 4.52001L28.2332 0.512971C28.1069 0.219321 27.8195 0.0292969 27.5001 0.0292969C27.1807 0.0292969 26.8932 0.219351 26.767 0.513704L25.055 4.52004L20.7249 4.91315C20.5695 4.92739 20.4217 4.98691 20.2998 5.08435C20.1779 5.1818 20.0873 5.31286 20.0393 5.46131C19.9405 5.76507 20.0317 6.09821 20.2724 6.30822L23.5449 9.17821L22.5799 13.429C22.5093 13.7416 22.6306 14.0646 22.8899 14.2521C23.0293 14.3528 23.1924 14.4041 23.3569 14.4041C23.4987 14.4041 23.6393 14.3659 23.7656 14.2903L27.5001 12.0583L31.2332 14.2903C31.5064 14.4547 31.8508 14.4397 32.1095 14.2521C32.2362 14.1604 32.3331 14.0335 32.3883 13.8871C32.4434 13.7408 32.4543 13.5815 32.4196 13.429L31.4546 9.17821L34.7271 6.3088C34.8448 6.20599 34.9297 6.07085 34.9713 5.92018C35.0129 5.76951 35.0092 5.60994 34.9609 5.46131Z" fill="#FFC107"/>
</g>
<g clip-path="url(#clip2_170_1995)">
<path d="M54.9609 5.46131C54.9129 5.31267 54.8223 5.18143 54.7002 5.08395C54.5782 4.98648 54.4302 4.92707 54.2746 4.91315L49.9452 4.52001L48.2332 0.512971C48.1069 0.219321 47.8195 0.0292969 47.5001 0.0292969C47.1807 0.0292969 46.8932 0.219351 46.767 0.513704L45.055 4.52004L40.7249 4.91315C40.5695 4.92739 40.4217 4.98691 40.2998 5.08435C40.1779 5.1818 40.0873 5.31286 40.0393 5.46131C39.9405 5.76507 40.0317 6.09821 40.2724 6.30822L43.5449 9.17821L42.5799 13.429C42.5093 13.7416 42.6306 14.0646 42.8899 14.2521C43.0293 14.3528 43.1924 14.4041 43.3569 14.4041C43.4987 14.4041 43.6393 14.3659 43.7656 14.2903L47.5001 12.0583L51.2332 14.2903C51.5064 14.4547 51.8508 14.4397 52.1095 14.2521C52.2362 14.1604 52.3331 14.0335 52.3883 13.8871C52.4434 13.7408 52.4543 13.5815 52.4196 13.429L51.4546 9.17821L54.7271 6.3088C54.8448 6.20599 54.9297 6.07085 54.9713 5.92018C55.0129 5.76951 55.0092 5.60994 54.9609 5.46131Z" fill="#FFC107"/>
</g>
<g clip-path="url(#clip3_170_1995)">
<path d="M74.9609 5.46131C74.9129 5.31267 74.8223 5.18143 74.7002 5.08395C74.5782 4.98648 74.4302 4.92707 74.2746 4.91315L69.9452 4.52001L68.2332 0.512971C68.1069 0.219321 67.8195 0.0292969 67.5001 0.0292969C67.1807 0.0292969 66.8932 0.219351 66.767 0.513704L65.055 4.52004L60.7249 4.91315C60.5695 4.92739 60.4217 4.98691 60.2998 5.08435C60.1779 5.1818 60.0873 5.31286 60.0393 5.46131C59.9405 5.76507 60.0317 6.09821 60.2724 6.30822L63.5449 9.17821L62.5799 13.429C62.5093 13.7416 62.6306 14.0646 62.8899 14.2521C63.0293 14.3528 63.1924 14.4041 63.3569 14.4041C63.4987 14.4041 63.6393 14.3659 63.7656 14.2903L67.5001 12.0583L71.2332 14.2903C71.5064 14.4547 71.8508 14.4397 72.1095 14.2521C72.2362 14.1604 72.3331 14.0335 72.3883 13.8871C72.4434 13.7408 72.4543 13.5815 72.4196 13.429L71.4546 9.17821L74.7271 6.3088C74.8448 6.20599 74.9297 6.07085 74.9713 5.92018C75.0129 5.76951 75.0092 5.60994 74.9609 5.46131Z" fill="#FFC107"/>
</g>
<g clip-path="url(#clip4_170_1995)">
<path d="M94.9609 5.46131C94.9129 5.31267 94.8223 5.18143 94.7002 5.08395C94.5782 4.98648 94.4302 4.92707 94.2746 4.91315L89.9452 4.52001L88.2332 0.512971C88.1069 0.219321 87.8195 0.0292969 87.5001 0.0292969C87.1807 0.0292969 86.8932 0.219351 86.767 0.513704L85.055 4.52004L80.7249 4.91315C80.5695 4.92739 80.4217 4.98691 80.2998 5.08435C80.1779 5.1818 80.0873 5.31286 80.0393 5.46131C79.9405 5.76507 80.0317 6.09821 80.2724 6.30822L83.5449 9.17821L82.5799 13.429C82.5093 13.7416 82.6306 14.0646 82.8899 14.2521C83.0293 14.3528 83.1924 14.4041 83.3569 14.4041C83.4987 14.4041 83.6393 14.3659 83.7656 14.2903L87.5001 12.0583L91.2332 14.2903C91.5064 14.4547 91.8508 14.4397 92.1095 14.2521C92.2362 14.1604 92.3331 14.0335 92.3882 13.8871C92.4434 13.7408 92.4543 13.5815 92.4195 13.429L91.4546 9.17821L94.7271 6.3088C94.8448 6.20599 94.9297 6.07085 94.9713 5.92018C95.0129 5.76951 95.0092 5.60994 94.9609 5.46131Z" fill="#FFC107"/>
</g>
<defs>
<clipPath id="clip0_170_1995">
<rect width="15" height="15" fill="white"/>
</clipPath>
<clipPath id="clip1_170_1995">
<rect width="15" height="15" fill="white" transform="translate(20)"/>
</clipPath>
<clipPath id="clip2_170_1995">
<rect width="15" height="15" fill="white" transform="translate(40)"/>
</clipPath>
<clipPath id="clip3_170_1995">
<rect width="15" height="15" fill="white" transform="translate(60)"/>
</clipPath>
<clipPath id="clip4_170_1995">
<rect width="15" height="15" fill="white" transform="translate(80)"/>
</clipPath>
</defs>
</svg>
