<svg width="30" height="30" viewBox="0 0 30 30" fill="none" xmlns="http://www.w3.org/2000/svg">
<path d="M0.5 5C0.5 2.51472 2.51472 0.5 5 0.5H25C27.4853 0.5 29.5 2.51472 29.5 5V25C29.5 27.4853 27.4853 29.5 25 29.5H5C2.51472 29.5 0.5 27.4853 0.5 25V5Z" fill="#741349" stroke="#741349"/>
<rect width="18" height="18" transform="matrix(1 0 0 -1 5.99831 24)" fill="#741349"/>
<path d="M14.9983 9.75169C14.8493 9.75082 14.7035 9.79434 14.5793 9.87669C14.4552 9.95904 14.3584 10.0765 14.3013 10.2141C14.2442 10.3517 14.2293 10.5031 14.2586 10.6492C14.2879 10.7953 14.36 10.9293 14.4658 11.0342L18.4408 15.0017L14.4658 18.9692C14.3429 19.1127 14.2787 19.2972 14.286 19.486C14.2933 19.6747 14.3716 19.8538 14.5051 19.9874C14.6387 20.1209 14.8178 20.1992 15.0065 20.2065C15.1953 20.2138 15.3798 20.1496 15.5233 20.0267L20.0233 15.5267C20.163 15.3862 20.2414 15.1961 20.2414 14.9979C20.2414 14.7998 20.163 14.6097 20.0233 14.4692L15.5233 9.96919C15.3836 9.83063 15.1951 9.75252 14.9983 9.75169Z" fill="white"/>
<path d="M10.4983 9.75084C10.3493 9.74998 10.2035 9.79349 10.0793 9.87584C9.9552 9.9582 9.8584 10.0756 9.80128 10.2132C9.74415 10.3508 9.72929 10.5023 9.75859 10.6484C9.7879 10.7944 9.86003 10.9284 9.9658 11.0333L13.9408 15.0008L9.9658 18.9683C9.82458 19.1096 9.74524 19.3011 9.74524 19.5008C9.74524 19.7006 9.82458 19.8921 9.9658 20.0333C10.107 20.1746 10.2986 20.2539 10.4983 20.2539C10.698 20.2539 10.8896 20.1746 11.0308 20.0333L15.5308 15.5333C15.6705 15.3928 15.7489 15.2027 15.7489 15.0046C15.7489 14.8065 15.6705 14.6164 15.5308 14.4758L11.0308 9.97584C10.9613 9.90498 10.8785 9.8486 10.7871 9.80998C10.6957 9.77136 10.5975 9.75126 10.4983 9.75084Z" fill="white"/>
</svg>
