<svg width="49" height="49" viewBox="0 0 49 49" fill="none" xmlns="http://www.w3.org/2000/svg">
<path d="M7 1C3.68629 1 1 3.68629 1 7V42C1 45.3137 3.68629 48 7 48H42C45.3137 48 48 45.3137 48 42V7C48 3.68629 45.3137 1 42 1H7Z" stroke="#741349" stroke-width="2"/>
<path fill-rule="evenodd" clip-rule="evenodd" d="M18.8876 24.9187H21.6406C22.5627 24.9216 23.4461 25.2892 24.0981 25.9413C24.7501 26.5934 25.1175 27.4769 25.1203 28.399V37.8276C25.1203 38.4719 24.5936 38.9993 23.9486 38.9993H16.5782C16.2678 38.9982 15.9705 38.8744 15.7512 38.6548C15.5318 38.4353 15.4081 38.1379 15.4072 37.8276V28.399C15.4098 27.4767 15.7773 26.5929 16.4294 25.9406C17.0815 25.2884 17.9653 24.9214 18.8876 24.9187ZM16.8972 29.3201H23.6309V34.5978H16.8972V29.3201Z" fill="#741349"/>
<path d="M22.1638 25.5637C22.1638 25.6675 22.205 25.7671 22.2784 25.8405C22.3518 25.9139 22.4513 25.9551 22.5551 25.9551C22.6589 25.9551 22.7585 25.9139 22.8319 25.8405C22.9053 25.7671 22.9465 25.6675 22.9465 25.5637V23.419C22.9406 23.3194 22.8968 23.2257 22.8241 23.1572C22.7514 23.0888 22.6553 23.0506 22.5555 23.0506C22.4556 23.0506 22.3595 23.0888 22.2869 23.1572C22.2142 23.2257 22.1704 23.3194 22.1645 23.419L22.1638 25.5637ZM18.3644 23.419C18.3644 23.3152 18.3231 23.2155 18.2497 23.1421C18.1762 23.0686 18.0766 23.0273 17.9727 23.0273C17.8688 23.0273 17.7692 23.0686 17.6957 23.1421C17.6222 23.2155 17.581 23.3152 17.581 23.419V25.5637C17.581 25.6675 17.6222 25.7671 17.6956 25.8405C17.769 25.9139 17.8685 25.9551 17.9723 25.9551C18.0761 25.9551 18.1757 25.9139 18.2491 25.8405C18.3225 25.7671 18.3637 25.6675 18.3637 25.5637L18.3644 23.419Z" fill="#741349"/>
<path d="M22.8558 21.293H17.673C17.1956 21.293 16.8086 21.68 16.8086 22.1573V23.0902C16.8086 23.5676 17.1956 23.9546 17.673 23.9546H22.8558C23.3332 23.9546 23.7202 23.5676 23.7202 23.0902V22.1573C23.7202 21.68 23.3332 21.293 22.8558 21.293Z" fill="#741349"/>
<path fill-rule="evenodd" clip-rule="evenodd" d="M16.9893 11.8644L19.3146 9.53906L22.3119 12.5357L19.9866 14.861L16.9893 11.8644ZM20.9257 16.5185L20.4634 16.0562L20.2419 15.117L22.5624 12.7966L23.568 12.9516L24.0303 13.4139L20.9257 16.5185ZM23.4711 20.3442L27.8463 15.969L24.9549 13.009L20.5797 17.3842L23.4711 20.3442Z" fill="#741349"/>
<path fill-rule="evenodd" clip-rule="evenodd" d="M26.0283 17.2424L33.452 24.6661C33.6126 24.8274 33.7027 25.0458 33.7027 25.2734C33.7027 25.501 33.6126 25.7193 33.452 25.8807C33.2907 26.0412 33.0724 26.1313 32.8447 26.1313C32.6171 26.1313 32.3988 26.0412 32.2375 25.8807L24.8138 18.4577L26.0283 17.2424ZM33.0589 27.7783C35.6964 30.6344 34.4043 32.0718 33.0866 32.0912C31.7496 32.1113 30.3855 30.6732 33.0589 27.7783ZM19.0489 9.28236L17.7049 9L16.4219 10.2824L16.7285 11.6028L19.0489 9.28236Z" fill="#741349"/>
</svg>
