<svg width="56" height="46" viewBox="0 0 56 46" fill="none" xmlns="http://www.w3.org/2000/svg">
<path d="M51 0H5C2.23858 0 0 2.23858 0 5V41C0 43.7614 2.23858 46 5 46H51C53.7614 46 56 43.7614 56 41V5C56 2.23858 53.7614 0 51 0Z" fill="#741349"/>
<path d="M25.75 14C22.03 14 19 17.03 19 20.75C19 24.47 22.03 27.5 25.75 27.5C29.47 27.5 32.5 24.47 32.5 20.75C32.5 17.03 29.47 14 25.75 14ZM25.75 17.75C24.0955 17.75 22.75 19.0955 22.75 20.75C22.75 20.9489 22.671 21.1397 22.5303 21.2803C22.3897 21.421 22.1989 21.5 22 21.5C21.8011 21.5 21.6103 21.421 21.4697 21.2803C21.329 21.1397 21.25 20.9489 21.25 20.75C21.25 18.2682 23.2683 16.25 25.75 16.25C25.9489 16.25 26.1397 16.329 26.2803 16.4697C26.421 16.6103 26.5 16.8011 26.5 17C26.5 17.1989 26.421 17.3897 26.2803 17.5303C26.1397 17.671 25.9489 17.75 25.75 17.75ZM36.25 32C36.1515 32.0001 36.054 31.9807 35.963 31.943C35.872 31.9053 35.7893 31.85 35.7198 31.7803L31.2198 27.2803C31.1501 27.2106 31.0949 27.1279 31.0572 27.037C31.0195 26.946 31.0001 26.8485 31.0001 26.75C31.0001 26.6515 31.0195 26.554 31.0572 26.463C31.0949 26.3721 31.1501 26.2894 31.2198 26.2197C31.2894 26.1501 31.3721 26.0949 31.463 26.0572C31.554 26.0195 31.6515 26.0001 31.75 26.0001C31.8485 26.0001 31.946 26.0195 32.037 26.0572C32.128 26.0949 32.2106 26.1501 32.2803 26.2197L36.7803 30.7197C36.8855 30.8245 36.9572 30.9581 36.9863 31.1037C37.0155 31.2493 37.0007 31.4003 36.9439 31.5375C36.8871 31.6746 36.7908 31.7918 36.6672 31.8742C36.5437 31.9565 36.3985 32.0003 36.25 32Z" fill="white"/>
</svg>
