<svg width="54" height="54" viewBox="0 0 54 54" fill="none" xmlns="http://www.w3.org/2000/svg">
<path d="M20.4375 0.75C9.5875 0.75 0.75 9.5875 0.75 20.4375C0.75 31.2875 9.5875 40.125 20.4375 40.125C31.2875 40.125 40.125 31.2875 40.125 20.4375C40.125 9.5875 31.2875 0.75 20.4375 0.75ZM20.4375 11.6875C15.6119 11.6875 11.6875 15.6119 11.6875 20.4375C11.6875 21.0177 11.457 21.5741 11.0468 21.9843C10.6366 22.3945 10.0802 22.625 9.5 22.625C8.91984 22.625 8.36344 22.3945 7.9532 21.9843C7.54297 21.5741 7.3125 21.0177 7.3125 20.4375C7.3125 13.1991 13.1991 7.3125 20.4375 7.3125C21.0177 7.3125 21.5741 7.54297 21.9843 7.9532C22.3945 8.36344 22.625 8.91984 22.625 9.5C22.625 10.0802 22.3945 10.6366 21.9843 11.0468C21.5741 11.457 21.0177 11.6875 20.4375 11.6875ZM51.0625 53.25C50.7752 53.2503 50.4907 53.1938 50.2253 53.0838C49.9599 52.9738 49.7188 52.8125 49.5159 52.6091L36.3909 39.4841C36.1878 39.281 36.0267 39.0399 35.9168 38.7745C35.8069 38.5091 35.7503 38.2247 35.7503 37.9375C35.7503 37.6503 35.8069 37.3659 35.9168 37.1005C36.0267 36.8351 36.1878 36.594 36.3909 36.3909C36.594 36.1878 36.8351 36.0267 37.1005 35.9168C37.3659 35.8069 37.6503 35.7503 37.9375 35.7503C38.2247 35.7503 38.5091 35.8069 38.7745 35.9168C39.0399 36.0267 39.281 36.1878 39.4841 36.3909L52.6091 49.5159C52.916 49.8214 53.1252 50.2113 53.2102 50.6359C53.2951 51.0605 53.252 51.5008 53.0863 51.9009C52.9206 52.301 52.6398 52.6428 52.2794 52.883C51.9191 53.1232 51.4955 53.251 51.0625 53.25Z" fill="white"/>
</svg>
