<svg width="35" height="391" viewBox="0 0 35 391" fill="none" xmlns="http://www.w3.org/2000/svg">
<rect width="2" height="391" transform="translate(17)" fill="white"/>
<circle cx="17.5" cy="195.5" r="17.5" fill="white"/>
<path d="M23.5785 194.555L22.3648 193.324L20.3872 191.318C19.9683 190.899 19.2537 191.199 19.2537 191.799V195.693V199.199C19.2537 199.799 19.9683 200.099 20.3872 199.674L23.5785 196.437C24.0898 195.924 24.0898 195.074 23.5785 194.555Z" fill="#741349"/>
<path d="M11.4212 196.445L12.6349 197.676L14.6125 199.682C15.0314 200.101 15.746 199.801 15.746 199.201V195.307V191.801C15.746 191.201 15.0314 190.901 14.6125 191.326L11.4212 194.563C10.9099 195.076 10.9099 195.926 11.4212 196.445Z" fill="#741349"/>
</svg>
