<svg width="93" height="40" viewBox="0 0 93 40" fill="none" xmlns="http://www.w3.org/2000/svg">
<rect width="93" height="40" rx="5" fill="#741349"/>
<path d="M56.9375 4H7.17969C4.97055 4 3.17969 5.79086 3.17969 8V32C3.17969 34.2091 4.97055 36 7.17969 36H83.4617" stroke="white"/>
<path d="M16.364 25.14C15.5707 25.14 14.8893 25.0047 14.32 24.734C13.76 24.4633 13.2513 24.0573 12.794 23.516L14.054 22.256C14.3433 22.6387 14.6793 22.9373 15.062 23.152C15.4447 23.3573 15.9113 23.46 16.462 23.46C16.9567 23.46 17.3487 23.362 17.638 23.166C17.9367 22.97 18.086 22.6993 18.086 22.354C18.086 22.0553 18.002 21.8127 17.834 21.626C17.666 21.4393 17.442 21.2807 17.162 21.15C16.8913 21.0193 16.588 20.9027 16.252 20.8C15.9253 20.688 15.594 20.562 15.258 20.422C14.9313 20.282 14.628 20.1093 14.348 19.904C14.0773 19.6893 13.858 19.4187 13.69 19.092C13.522 18.756 13.438 18.336 13.438 17.832C13.438 17.2347 13.5827 16.726 13.872 16.306C14.1613 15.886 14.558 15.564 15.062 15.34C15.566 15.116 16.1353 15.004 16.77 15.004C17.442 15.004 18.0487 15.13 18.59 15.382C19.1313 15.634 19.5747 15.9607 19.92 16.362L18.66 17.622C18.3707 17.3047 18.072 17.0713 17.764 16.922C17.4653 16.7727 17.1247 16.698 16.742 16.698C16.3033 16.698 15.958 16.782 15.706 16.95C15.454 17.118 15.328 17.3607 15.328 17.678C15.328 17.9487 15.412 18.168 15.58 18.336C15.748 18.504 15.9673 18.6487 16.238 18.77C16.518 18.8913 16.8213 19.008 17.148 19.12C17.484 19.232 17.8153 19.358 18.142 19.498C18.478 19.638 18.7813 19.82 19.052 20.044C19.332 20.268 19.556 20.5573 19.724 20.912C19.892 21.2573 19.976 21.6867 19.976 22.2C19.976 23.1147 19.654 23.8333 19.01 24.356C18.366 24.8787 17.484 25.14 16.364 25.14ZM24.1667 25.14C23.5694 25.14 23.0374 25.014 22.5707 24.762C22.1134 24.51 21.754 24.16 21.4927 23.712C21.2314 23.264 21.1007 22.746 21.1007 22.158V18.238H22.9487V22.116C22.9487 22.396 22.9954 22.6387 23.0887 22.844C23.182 23.04 23.322 23.1893 23.5087 23.292C23.6954 23.3947 23.9147 23.446 24.1667 23.446C24.5494 23.446 24.848 23.3293 25.0627 23.096C25.2774 22.8627 25.3847 22.536 25.3847 22.116V18.238H27.2187V22.158C27.2187 22.7553 27.088 23.278 26.8267 23.726C26.5747 24.174 26.2154 24.524 25.7487 24.776C25.2914 25.0187 24.764 25.14 24.1667 25.14ZM32.4312 25.14C31.9459 25.14 31.5072 25.0373 31.1152 24.832C30.7232 24.6267 30.4105 24.3467 30.1772 23.992C29.9439 23.6373 29.8179 23.2407 29.7992 22.802V20.394C29.8179 19.9553 29.9439 19.5633 30.1772 19.218C30.4199 18.8633 30.7372 18.588 31.1292 18.392C31.5212 18.196 31.9552 18.098 32.4312 18.098C33.0565 18.098 33.6165 18.252 34.1112 18.56C34.6059 18.868 34.9932 19.288 35.2732 19.82C35.5625 20.352 35.7072 20.954 35.7072 21.626C35.7072 22.2887 35.5625 22.886 35.2732 23.418C34.9932 23.95 34.6059 24.37 34.1112 24.678C33.6165 24.986 33.0565 25.14 32.4312 25.14ZM32.1232 23.446C32.4592 23.446 32.7532 23.3713 33.0052 23.222C33.2665 23.0633 33.4672 22.8487 33.6072 22.578C33.7565 22.298 33.8312 21.976 33.8312 21.612C33.8312 21.2573 33.7565 20.9447 33.6072 20.674C33.4672 20.394 33.2665 20.1793 33.0052 20.03C32.7439 19.8713 32.4452 19.792 32.1092 19.792C31.7732 19.792 31.4745 19.8713 31.2132 20.03C30.9612 20.1793 30.7605 20.394 30.6112 20.674C30.4712 20.9447 30.4012 21.2573 30.4012 21.612C30.4012 21.976 30.4712 22.298 30.6112 22.578C30.7605 22.8487 30.9659 23.0633 31.2272 23.222C31.4885 23.3713 31.7872 23.446 32.1232 23.446ZM28.6792 25V14.878H30.5132V19.904L30.2052 21.528L30.4992 23.18V25H28.6792ZM36.9097 25V18.238H38.7437V25H36.9097ZM41.3197 25V21.01C41.3197 20.618 41.1937 20.3147 40.9417 20.1C40.699 19.876 40.3957 19.764 40.0317 19.764C39.789 19.764 39.5697 19.8153 39.3737 19.918C39.1777 20.0113 39.0237 20.1513 38.9117 20.338C38.7997 20.5247 38.7437 20.7487 38.7437 21.01L38.0297 20.66C38.0297 20.1373 38.1417 19.6847 38.3657 19.302C38.599 18.9193 38.9117 18.6253 39.3037 18.42C39.6957 18.2053 40.139 18.098 40.6337 18.098C41.1003 18.098 41.525 18.2053 41.9077 18.42C42.2903 18.6253 42.5937 18.9193 42.8177 19.302C43.0417 19.6753 43.1537 20.128 43.1537 20.66V25H41.3197ZM45.7297 25V21.01C45.7297 20.618 45.6037 20.3147 45.3517 20.1C45.109 19.876 44.8057 19.764 44.4417 19.764C44.2083 19.764 43.989 19.8153 43.7837 19.918C43.5877 20.0113 43.4337 20.1513 43.3217 20.338C43.2097 20.5247 43.1537 20.7487 43.1537 21.01L42.1037 20.758C42.141 20.2167 42.2857 19.75 42.5377 19.358C42.7897 18.9567 43.121 18.6487 43.5317 18.434C43.9423 18.21 44.3997 18.098 44.9037 18.098C45.4077 18.098 45.8603 18.2053 46.2617 18.42C46.663 18.6253 46.9803 18.924 47.2137 19.316C47.447 19.708 47.5637 20.1747 47.5637 20.716V25H45.7297ZM49.0503 25V18.238H50.8983V25H49.0503ZM49.9743 17.146C49.6756 17.146 49.4283 17.048 49.2323 16.852C49.0363 16.6467 48.9383 16.3947 48.9383 16.096C48.9383 15.8067 49.0363 15.5593 49.2323 15.354C49.4283 15.1487 49.6756 15.046 49.9743 15.046C50.2823 15.046 50.5296 15.1487 50.7163 15.354C50.9123 15.5593 51.0103 15.8067 51.0103 16.096C51.0103 16.3947 50.9123 16.6467 50.7163 16.852C50.5296 17.048 50.2823 17.146 49.9743 17.146ZM53.5169 25V15.424H55.3509V25H53.5169ZM51.9349 19.848V18.238H56.9329V19.848H51.9349Z" fill="white"/>
<path d="M71.5044 25.2483C71.3554 25.2492 71.2095 25.2057 71.0854 25.1233C70.9613 25.041 70.8645 24.9235 70.8073 24.7859C70.7502 24.6483 70.7353 24.4969 70.7647 24.3508C70.794 24.2047 70.8661 24.0707 70.9719 23.9658L74.9469 19.9983L70.9719 16.0308C70.849 15.8873 70.7848 15.7028 70.7921 15.514C70.7994 15.3253 70.8776 15.1462 71.0112 15.0126C71.1448 14.8791 71.3238 14.8008 71.5126 14.7935C71.7013 14.7862 71.8859 14.8504 72.0294 14.9733L76.5294 19.4733C76.6691 19.6138 76.7475 19.8039 76.7475 20.0021C76.7475 20.2002 76.6691 20.3903 76.5294 20.5308L72.0294 25.0308C71.8897 25.1694 71.7011 25.2475 71.5044 25.2483Z" fill="white"/>
<path d="M67.0044 25.2492C66.8554 25.25 66.7095 25.2065 66.5854 25.1242C66.4613 25.0418 66.3645 24.9244 66.3073 24.7868C66.2502 24.6492 66.2353 24.4977 66.2647 24.3517C66.294 24.2056 66.3661 24.0716 66.4719 23.9667L70.4469 19.9992L66.4719 16.0317C66.3306 15.8904 66.2513 15.6989 66.2513 15.4992C66.2513 15.2994 66.3306 15.1079 66.4719 14.9667C66.6131 14.8254 66.8046 14.7461 67.0044 14.7461C67.2041 14.7461 67.3956 14.8254 67.5369 14.9667L72.0369 19.4667C72.1766 19.6072 72.255 19.7973 72.255 19.9954C72.255 20.1936 72.1766 20.3836 72.0369 20.5242L67.5369 25.0242C67.4674 25.095 67.3846 25.1514 67.2932 25.19C67.2018 25.2287 67.1036 25.2488 67.0044 25.2492Z" fill="white"/>
</svg>
