<svg width="167" height="143" viewBox="0 0 167 143" fill="none" xmlns="http://www.w3.org/2000/svg">
<path fill-rule="evenodd" clip-rule="evenodd" d="M151.485 140.412C151.485 140.412 148.261 131.268 138.511 134.638C128.761 138.007 126.674 138.207 126.674 138.207C126.674 138.207 126.758 103.462 113.227 105.814C99.6873 108.166 118.515 132.582 119.454 138.341C120.392 144.098 94.5098 147.931 92.2066 125.413C89.9083 102.9 98.2825 96.6554 89.4073 94.3424C80.537 92.0343 78.8964 105.96 80.6243 113.29C82.3523 120.621 91.8414 133.973 89.7819 138.078C87.7227 142.183 65.6019 134.219 67.4382 119.465C69.2745 104.712 81.5768 79.9661 68.6804 76.1608C55.7859 72.361 50.0454 84.6309 52.3217 96.0625C54.5985 107.494 61.8315 121.995 58.7887 125.744C55.7467 129.494 19.9462 84.4841 36.7742 66.3935C45.2609 57.2744 51.3516 54.1117 54.9512 51.3438C49.9294 33.3162 1.62599 50.8268 0.852766 37.96C-0.634974 13.3871 44.1726 39.124 58.611 41.1288C58.5247 40.4841 58.4132 39.8046 58.2718 39.064C55.5286 24.4807 68.519 -11.6655 102.581 4.67839C136.644 21.0218 139.871 28.5085 121.009 28.6196C102.148 28.7329 89.0386 39.9545 93.7614 47.6751C98.4842 55.3957 112.38 48.2704 123.517 42.0252C134.65 35.7753 148.381 35.9086 154.835 48.0444C161.289 60.1802 170.25 86.0314 152.355 73.365C134.46 60.6986 116.558 51.9783 109.766 58.9282C102.97 65.8832 105.561 75.577 122.049 76.5717C138.537 77.5665 163.633 76.7347 166.291 94.5535C168.95 112.372 147.826 94.5865 138.127 91.0522C128.425 87.5208 114.445 86.2221 120.289 96.1317C126.13 106.045 156.497 103.717 158.455 111.996C160.418 120.272 148.816 119.896 151.472 140.406L151.485 140.412ZM81.9075 38.5109C78.0905 42.328 72.8435 43.2737 70.19 40.6225C67.5353 37.9702 68.4754 32.7213 72.2924 28.9042C76.1095 25.0872 81.3564 24.1414 84.0149 26.7976C86.6696 29.4499 85.7246 34.6938 81.9075 38.5109ZM93.5015 72.7969C91.3742 74.9242 88.4481 75.4541 86.967 73.9744C85.4859 72.4945 86.0101 69.5743 88.1421 67.4423C90.2694 65.315 93.1956 64.785 94.6766 66.2648C96.1577 67.7446 95.6335 70.6649 93.5015 72.7969Z" fill="#741349" fill-opacity="0.1"/>
</svg>
