<svg width="117" height="40" viewBox="0 0 117 40" fill="none" xmlns="http://www.w3.org/2000/svg">
<rect width="117" height="40" rx="5" fill="#741349"/>
<path d="M71.6308 4H8C5.79087 4 4 5.79086 4 8V32C4 34.2091 5.79086 36 8 36H105" stroke="white"/>
<path d="M16.658 25L12.78 15.158H14.838L17.834 23.124H17.036L20.06 15.158H22.09L18.17 25H16.658ZM23.1831 25V18.238H25.0311V25H23.1831ZM24.1071 17.146C23.8084 17.146 23.5611 17.048 23.3651 16.852C23.1691 16.6467 23.0711 16.3947 23.0711 16.096C23.0711 15.8067 23.1691 15.5593 23.3651 15.354C23.5611 15.1487 23.8084 15.046 24.1071 15.046C24.4151 15.046 24.6624 15.1487 24.8491 15.354C25.0451 15.5593 25.1431 15.8067 25.1431 16.096C25.1431 16.3947 25.0451 16.6467 24.8491 16.852C24.6624 17.048 24.4151 17.146 24.1071 17.146ZM29.8898 25.14C29.1804 25.14 28.5504 24.9907 27.9998 24.692C27.4491 24.384 27.0104 23.964 26.6838 23.432C26.3664 22.9 26.2078 22.2933 26.2078 21.612C26.2078 20.94 26.3618 20.3427 26.6698 19.82C26.9871 19.288 27.4164 18.868 27.9578 18.56C28.4991 18.2427 29.1011 18.084 29.7638 18.084C30.4171 18.084 30.9911 18.2333 31.4858 18.532C31.9898 18.8213 32.3818 19.2227 32.6618 19.736C32.9511 20.24 33.0958 20.814 33.0958 21.458C33.0958 21.5793 33.0864 21.7053 33.0678 21.836C33.0584 21.9573 33.0351 22.0973 32.9978 22.256L27.3138 22.27V20.898L32.1438 20.884L31.4018 21.458C31.3831 21.0567 31.3084 20.7207 31.1778 20.45C31.0564 20.1793 30.8744 19.974 30.6318 19.834C30.3984 19.6847 30.1091 19.61 29.7638 19.61C29.3998 19.61 29.0824 19.694 28.8118 19.862C28.5411 20.0207 28.3311 20.2493 28.1818 20.548C28.0418 20.8373 27.9718 21.1827 27.9718 21.584C27.9718 21.9947 28.0464 22.354 28.1958 22.662C28.3544 22.9607 28.5784 23.194 28.8678 23.362C29.1571 23.5207 29.4931 23.6 29.8758 23.6C30.2211 23.6 30.5338 23.544 30.8138 23.432C31.0938 23.3107 31.3364 23.1333 31.5418 22.9L32.6198 23.978C32.2931 24.3607 31.8918 24.65 31.4158 24.846C30.9491 25.042 30.4404 25.14 29.8898 25.14ZM35.9539 25L33.4199 18.238H35.2679L36.9199 23.152L36.3599 23.166L38.0539 18.238H39.3839L41.0779 23.166L40.5179 23.152L42.1699 18.238H44.0179L41.4979 25H40.1679L38.4599 20.324H38.9779L37.2699 25H35.9539ZM47.8381 25V15.158H49.1821L53.1721 21.542H52.4021L56.3781 15.158H57.7221V25H55.8321V18.42L56.1961 18.532L53.4241 22.984H52.1361L49.3641 18.532L49.7421 18.42V25H47.8381ZM62.7146 25.14C62.0333 25.14 61.4173 24.986 60.8666 24.678C60.3253 24.3607 59.8913 23.936 59.5646 23.404C59.2473 22.8627 59.0886 22.2607 59.0886 21.598C59.0886 20.9353 59.2473 20.3427 59.5646 19.82C59.8819 19.288 60.3159 18.868 60.8666 18.56C61.4173 18.2427 62.0286 18.084 62.7006 18.084C63.3913 18.084 64.0073 18.2427 64.5486 18.56C65.0993 18.868 65.5333 19.288 65.8506 19.82C66.1679 20.3427 66.3266 20.9353 66.3266 21.598C66.3266 22.2607 66.1679 22.8627 65.8506 23.404C65.5333 23.936 65.0993 24.3607 64.5486 24.678C64.0073 24.986 63.3959 25.14 62.7146 25.14ZM62.7006 23.432C63.0459 23.432 63.3493 23.3573 63.6106 23.208C63.8813 23.0493 64.0866 22.8347 64.2266 22.564C64.3759 22.284 64.4506 21.9667 64.4506 21.612C64.4506 21.2573 64.3759 20.9447 64.2266 20.674C64.0773 20.4033 63.8719 20.1933 63.6106 20.044C63.3493 19.8853 63.0459 19.806 62.7006 19.806C62.3646 19.806 62.0659 19.8853 61.8046 20.044C61.5433 20.1933 61.3379 20.4033 61.1886 20.674C61.0393 20.9447 60.9646 21.2573 60.9646 21.612C60.9646 21.9667 61.0393 22.284 61.1886 22.564C61.3379 22.8347 61.5433 23.0493 61.8046 23.208C62.0659 23.3573 62.3646 23.432 62.7006 23.432ZM67.5073 25V18.238H69.3413V25H67.5073ZM69.3413 21.262L68.6273 20.786C68.7113 19.9553 68.954 19.302 69.3553 18.826C69.7566 18.3407 70.3353 18.098 71.0913 18.098C71.418 18.098 71.712 18.154 71.9733 18.266C72.2346 18.3687 72.4726 18.5413 72.6873 18.784L71.5393 20.1C71.4366 19.988 71.3106 19.904 71.1613 19.848C71.0213 19.792 70.858 19.764 70.6713 19.764C70.2793 19.764 69.9573 19.89 69.7053 20.142C69.4626 20.3847 69.3413 20.758 69.3413 21.262ZM76.3741 25.14C75.6648 25.14 75.0348 24.9907 74.4841 24.692C73.9335 24.384 73.4948 23.964 73.1681 23.432C72.8508 22.9 72.6921 22.2933 72.6921 21.612C72.6921 20.94 72.8461 20.3427 73.1541 19.82C73.4715 19.288 73.9008 18.868 74.4421 18.56C74.9835 18.2427 75.5855 18.084 76.2481 18.084C76.9015 18.084 77.4755 18.2333 77.9701 18.532C78.4741 18.8213 78.8661 19.2227 79.1461 19.736C79.4355 20.24 79.5801 20.814 79.5801 21.458C79.5801 21.5793 79.5708 21.7053 79.5521 21.836C79.5428 21.9573 79.5195 22.0973 79.4821 22.256L73.7981 22.27V20.898L78.6281 20.884L77.8861 21.458C77.8675 21.0567 77.7928 20.7207 77.6621 20.45C77.5408 20.1793 77.3588 19.974 77.1161 19.834C76.8828 19.6847 76.5935 19.61 76.2481 19.61C75.8841 19.61 75.5668 19.694 75.2961 19.862C75.0255 20.0207 74.8155 20.2493 74.6661 20.548C74.5261 20.8373 74.4561 21.1827 74.4561 21.584C74.4561 21.9947 74.5308 22.354 74.6801 22.662C74.8388 22.9607 75.0628 23.194 75.3521 23.362C75.6415 23.5207 75.9775 23.6 76.3601 23.6C76.7055 23.6 77.0181 23.544 77.2981 23.432C77.5781 23.3107 77.8208 23.1333 78.0261 22.9L79.1041 23.978C78.7775 24.3607 78.3761 24.65 77.9001 24.846C77.4335 25.042 76.9248 25.14 76.3741 25.14Z" fill="white"/>
<path d="M94.5014 25.2503C94.3525 25.2511 94.2066 25.2076 94.0825 25.1253C93.9583 25.0429 93.8615 24.9255 93.8044 24.7879C93.7473 24.6503 93.7324 24.4988 93.7617 24.3528C93.791 24.2067 93.8632 24.0727 93.9689 23.9678L97.9439 20.0003L93.9689 16.0328C93.8461 15.8893 93.7819 15.7047 93.7891 15.516C93.7964 15.3272 93.8747 15.1482 94.0083 15.0146C94.1418 14.881 94.3209 14.8028 94.5096 14.7955C94.6984 14.7882 94.883 14.8524 95.0264 14.9753L99.5264 19.4753C99.6661 19.6158 99.7445 19.8059 99.7445 20.004C99.7445 20.2022 99.6661 20.3922 99.5264 20.5328L95.0264 25.0328C94.8867 25.1713 94.6982 25.2494 94.5014 25.2503Z" fill="white"/>
<path d="M90.0014 25.2511C89.8525 25.252 89.7066 25.2085 89.5825 25.1261C89.4583 25.0438 89.3615 24.9263 89.3044 24.7887C89.2473 24.6511 89.2324 24.4997 89.2617 24.3536C89.291 24.2075 89.3632 24.0735 89.4689 23.9686L93.4439 20.0011L89.4689 16.0336C89.3277 15.8924 89.2484 15.7008 89.2484 15.5011C89.2484 15.3014 89.3277 15.1098 89.4689 14.9686C89.6102 14.8274 89.8017 14.748 90.0014 14.748C90.2012 14.748 90.3927 14.8274 90.5339 14.9686L95.0339 19.4686C95.1736 19.6091 95.252 19.7992 95.252 19.9974C95.252 20.1955 95.1736 20.3856 95.0339 20.5261L90.5339 25.0261C90.4645 25.097 90.3816 25.1534 90.2902 25.192C90.1988 25.2306 90.1007 25.2507 90.0014 25.2511Z" fill="white"/>
</svg>
